<?xml version="1.0" standalone="no"?><!DOCTYPE svg PUBLIC "-//W3C//DTD SVG 1.1//EN" "http://www.w3.org/Graphics/SVG/1.1/DTD/svg11.dtd"><svg t="1697595083697" class="icon" viewBox="0 0 1024 1024" version="1.1" xmlns="http://www.w3.org/2000/svg" p-id="20164" xmlns:xlink="http://www.w3.org/1999/xlink" width="200" height="200"><path d="M640 42.666667a42.666667 42.666667 0 0 1 30.151111 12.515555l213.333333 213.333334c8.021333 7.964444 12.515556 18.830222 12.515556 30.151111v597.333333a85.333333 85.333333 0 0 1-85.333333 85.333333H213.333333a85.333333 85.333333 0 0 1-85.333333-85.333333V128a85.333333 85.333333 0 0 1 85.333333-85.333333h426.666667z m-17.692444 85.333333H213.333333v768h597.333334V316.359111L622.307556 128zM682.666667 554.666667a42.666667 42.666667 0 1 1 0 85.333333H341.333333a42.666667 42.666667 0 1 1 0-85.333333h341.333334z m0-170.666667a42.666667 42.666667 0 1 1 0 85.333333H341.333333a42.666667 42.666667 0 0 1 0-85.333333h341.333334z" p-id="20165"></path></svg>