<?xml version="1.0" standalone="no"?><!DOCTYPE svg PUBLIC "-//W3C//DTD SVG 1.1//EN" "http://www.w3.org/Graphics/SVG/1.1/DTD/svg11.dtd"><svg t="1697594920267" class="icon" viewBox="0 0 1024 1024" version="1.1" xmlns="http://www.w3.org/2000/svg" p-id="14502" xmlns:xlink="http://www.w3.org/1999/xlink" width="200" height="200"><path d="M725.333333 85.333333a42.666667 42.666667 0 0 1 42.666667 42.666667V170.666667h56.888889a156.444444 156.444444 0 0 1 156.444444 156.444444V739.555556a156.444444 156.444444 0 0 1-156.444444 156.444444h-625.777778A156.444444 156.444444 0 0 1 42.666667 739.555556V327.111111A156.444444 156.444444 0 0 1 199.111111 170.666667h56.888889v-42.666667a42.666667 42.666667 0 0 1 85.333333 0V170.666667h341.333334v-42.666667a42.666667 42.666667 0 0 1 42.666666-42.666667z m99.555556 170.666667h-56.888889v42.666667a42.666667 42.666667 0 1 1-85.333333 0V256H341.333333v42.666667a42.666667 42.666667 0 0 1-85.333333 0V256h-56.888889c-39.253333 0-71.111111 31.857778-71.111111 71.111111V739.555556c0 39.253333 31.857778 71.111111 71.111111 71.111111h625.777778c39.253333 0 71.111111-31.857778 71.111111-71.111111V327.111111c0-39.253333-31.857778-71.111111-71.111111-71.111111z m-99.555556 362.666667a42.666667 42.666667 0 1 1 0 85.333333h-426.666666a42.666667 42.666667 0 1 1 0-85.333333h426.666666z m-192-170.666667a42.666667 42.666667 0 0 1 0 85.333333H298.666667a42.666667 42.666667 0 0 1 0-85.333333h234.666666z" p-id="14503"></path></svg>