<?xml version="1.0" standalone="no"?><!DOCTYPE svg PUBLIC "-//W3C//DTD SVG 1.1//EN" "http://www.w3.org/Graphics/SVG/1.1/DTD/svg11.dtd"><svg t="1698203578112" class="icon" viewBox="0 0 1024 1024" version="1.1" xmlns="http://www.w3.org/2000/svg" p-id="4657" xmlns:xlink="http://www.w3.org/1999/xlink" width="200" height="200"><path d="M789.333333 106.666667a42.666667 42.666667 0 0 1 42.666667 42.666666V298.666667H910.222222a42.666667 42.666667 0 0 1 42.666667 42.666666v455.111111a42.666667 42.666667 0 0 1-42.666667 42.666667h-78.222222v35.555556a42.666667 42.666667 0 0 1-42.666667 42.666666h-554.666666a42.666667 42.666667 0 0 1-42.666667-42.666666v-35.555556H113.777778a42.666667 42.666667 0 0 1-42.666667-42.666667V341.333333A42.666667 42.666667 0 0 1 113.777778 298.666667h78.222222V149.333333a42.666667 42.666667 0 0 1 42.666667-42.666666h554.666666z m-42.666666 85.333333h-469.333334v640h469.333334V192zM184.888889 384h-28.444445v369.777778h28.444445v-369.777778z m682.666667 0h-28.444445v369.777778h28.444445v-369.777778z m-382.464 19.000889l128 85.333333a28.444444 28.444444 0 0 1 0 47.331556l-128 85.333333a28.444444 28.444444 0 0 1-44.202667-23.665778v-170.666666a28.444444 28.444444 0 0 1 44.202667-23.665778z m12.686222 76.8v64.341333L546.019556 512l-48.241778-32.199111z" p-id="4658"></path></svg>