<?xml version="1.0" standalone="no"?><!DOCTYPE svg PUBLIC "-//W3C//DTD SVG 1.1//EN" "http://www.w3.org/Graphics/SVG/1.1/DTD/svg11.dtd"><svg t="1697595293858" class="icon" viewBox="0 0 1024 1024" version="1.1" xmlns="http://www.w3.org/2000/svg" p-id="28174" xmlns:xlink="http://www.w3.org/1999/xlink" width="200" height="200"><path d="M938.666667 64a42.666667 42.666667 0 1 1 0 85.333333h-853.333334a42.666667 42.666667 0 0 1 0-85.333333h853.333334z m0 149.333333a42.666667 42.666667 0 0 1 42.666666 42.666667v170.666667a42.666667 42.666667 0 0 1-42.666666 42.666666h-42.666667v405.333334h42.666667a42.666667 42.666667 0 1 1 0 85.333333h-853.333334a42.666667 42.666667 0 1 1 0-85.333333h42.666667V810.666667H85.333333a42.666667 42.666667 0 0 1-42.666666-42.666667v-170.666667a42.666667 42.666667 0 0 1 42.666666-42.666666h170.666667a42.666667 42.666667 0 0 1 42.666667 42.666666v170.666667a42.666667 42.666667 0 0 1-42.666667 42.666667h-42.666667v64h256V640H426.666667a42.666667 42.666667 0 0 1-42.666667-42.666667v-170.666666a42.666667 42.666667 0 0 1 42.666667-42.666667h170.666666a42.666667 42.666667 0 0 1 42.666667 42.666667v170.666666a42.666667 42.666667 0 0 1-42.666667 42.666667h-42.666666v234.666667h256V469.333333h-42.666667a42.666667 42.666667 0 0 1-42.666667-42.666666v-170.666667a42.666667 42.666667 0 0 1 42.666667-42.666667h170.666667z m-725.333334 426.666667h-85.333333v85.333333h85.333333v-85.333333z m341.333334-170.666667h-85.333334v85.333334h85.333334v-85.333334zM170.666667 384a42.666667 42.666667 0 0 1 42.666666 42.666667v21.333333a42.666667 42.666667 0 0 1-85.333333 0V426.666667A42.666667 42.666667 0 0 1 170.666667 384z m725.333333-85.333333h-85.333333v85.333333h85.333333v-85.333333zM170.666667 213.333333a42.666667 42.666667 0 0 1 42.666666 42.666667v21.333333a42.666667 42.666667 0 0 1-85.333333 0V256A42.666667 42.666667 0 0 1 170.666667 213.333333z m320 0a42.666667 42.666667 0 0 1 42.666666 42.666667v21.333333a42.666667 42.666667 0 0 1-85.333333 0V256a42.666667 42.666667 0 0 1 42.666667-42.666667z" p-id="28175"></path></svg>