<?xml version="1.0" standalone="no"?><!DOCTYPE svg PUBLIC "-//W3C//DTD SVG 1.1//EN" "http://www.w3.org/Graphics/SVG/1.1/DTD/svg11.dtd"><svg t="1697594953941" class="icon" viewBox="0 0 1024 1024" version="1.1" xmlns="http://www.w3.org/2000/svg" p-id="15396" xmlns:xlink="http://www.w3.org/1999/xlink" width="200" height="200"><path d="M832 42.666667a85.333333 85.333333 0 0 1 85.333333 85.333333v768a85.333333 85.333333 0 0 1-85.333333 85.333333h-597.333333a85.333333 85.333333 0 0 1-85.333334-85.333333V128a85.333333 85.333333 0 0 1 85.333334-85.333333h597.333333z m0 85.333333h-597.333333v768h597.333333V128zM512 725.333333a42.666667 42.666667 0 1 1 0 85.333334H362.666667a42.666667 42.666667 0 1 1 0-85.333334H512z m149.333333-128a42.666667 42.666667 0 1 1 0 85.333334h-298.666666a42.666667 42.666667 0 1 1 0-85.333334h298.666666z m0-384a42.666667 42.666667 0 0 1 42.666667 42.666667v213.333333a42.666667 42.666667 0 0 1-42.666667 42.666667h-298.666666a42.666667 42.666667 0 0 1-42.666667-42.666667V256a42.666667 42.666667 0 0 1 42.666667-42.666667h298.666666z m-42.666666 85.333334h-213.333334V426.666667h213.333334V298.666667z" p-id="15397"></path></svg>