<?xml version="1.0" standalone="no"?><!DOCTYPE svg PUBLIC "-//W3C//DTD SVG 1.1//EN" "http://www.w3.org/Graphics/SVG/1.1/DTD/svg11.dtd"><svg t="1697595149777" class="icon" viewBox="0 0 1024 1024" version="1.1" xmlns="http://www.w3.org/2000/svg" p-id="22846" xmlns:xlink="http://www.w3.org/1999/xlink" width="200" height="200"><path d="M512 42.666667A469.333333 469.333333 0 1 1 42.666667 512a42.666667 42.666667 0 0 1 85.333333 0 384 384 0 1 0 97.792-256.056889l53.475556 0.056889a42.666667 42.666667 0 0 1 42.268444 36.864l0.398222 5.802667a42.666667 42.666667 0 0 1-42.666666 42.666666H124.131556a42.666667 42.666667 0 0 1-42.666667-42.666666V143.530667a42.666667 42.666667 0 0 1 85.333333 0l-0.056889 50.517333A468.650667 468.650667 0 0 1 512 42.666667z m0.113778 170.666666a42.666667 42.666667 0 0 1 42.666666 42.666667L554.666667 494.421333l168.504889 168.504889a42.666667 42.666667 0 0 1 4.096 55.523556l-4.096 4.778666a42.666667 42.666667 0 0 1-60.359112 0l-180.906666-180.906666a42.666667 42.666667 0 0 1-12.515556-30.151111V256a42.666667 42.666667 0 0 1 42.666667-42.666667z" p-id="22847"></path></svg>