<?xml version="1.0" standalone="no"?><!DOCTYPE svg PUBLIC "-//W3C//DTD SVG 1.1//EN" "http://www.w3.org/Graphics/SVG/1.1/DTD/svg11.dtd"><svg t="1697595157345" class="icon" viewBox="0 0 1024 1024" version="1.1" xmlns="http://www.w3.org/2000/svg" p-id="23144" xmlns:xlink="http://www.w3.org/1999/xlink" width="200" height="200"><path d="M558.888421 48.289684l114.095158 83.968a342.231579 342.231579 0 0 1 132.042105 204.584421l124.928 125.03579c7.599158 7.545263 11.856842 17.839158 11.856842 28.56421v172.463158a40.421053 40.421053 0 0 1-58.475789 36.109474l-70.871579-35.408842V792.252632a40.421053 40.421053 0 0 1-40.421053 40.421052h-67.47621a41.013895 41.013895 0 0 1 0.107789 2.694737v64.673684a40.421053 40.421053 0 0 1-80.842105 0v-64.673684l0.161684-2.694737h-48.774737a41.013895 41.013895 0 0 1 0.10779 2.694737v107.789474a40.421053 40.421053 0 0 1-80.842105 0v-107.789474l0.161684-2.694737h-48.774737a41.013895 41.013895 0 0 1 0.107789 2.694737v64.673684a40.421053 40.421053 0 1 1-80.842105 0v-64.673684l0.161684-2.694737H297.768421a40.421053 40.421053 0 0 1-40.421053-40.421052v-128.646737l-70.871579 35.462737a40.421053 40.421053 0 0 1-58.475789-36.163369V490.442105a40.421053 40.421053 0 0 1 11.856842-28.56421l124.928-125.03579a342.231579 342.231579 0 0 1 132.042105-204.584421L510.922105 48.289684a40.421053 40.421053 0 0 1 47.858527 0zM534.851368 130.964211L444.685474 197.362526a261.389474 261.389474 0 0 0-106.496 210.566737v343.902316h393.431579V407.929263a261.389474 261.389474 0 0 0-95.609264-202.105263l-10.886736-8.461474-90.21979-66.344421z m277.557895 327.68v114.58021l48.505263 24.252632V507.203368l-48.505263-48.505263z m-555.115789-0.053895l-48.505263 48.505263v90.327579l48.505263-24.252632V458.644211z" p-id="23145"></path></svg>