<?xml version="1.0" standalone="no"?><!DOCTYPE svg PUBLIC "-//W3C//DTD SVG 1.1//EN" "http://www.w3.org/Graphics/SVG/1.1/DTD/svg11.dtd"><svg t="1697594970929" class="icon" viewBox="0 0 1024 1024" version="1.1" xmlns="http://www.w3.org/2000/svg" p-id="15992" xmlns:xlink="http://www.w3.org/1999/xlink" width="200" height="200"><path d="M739.555556 42.666667a156.444444 156.444444 0 0 1 156.444444 156.444444v625.777778A156.444444 156.444444 0 0 1 739.555556 981.333333H284.444444a156.444444 156.444444 0 0 1-156.444444-156.444444v-625.777778A156.444444 156.444444 0 0 1 284.444444 42.666667h455.111112z m0 85.333333H284.444444c-39.253333 0-71.111111 31.857778-71.111111 71.111111v625.777778c0 39.253333 31.857778 71.111111 71.111111 71.111111h455.111112c39.253333 0 71.111111-31.857778 71.111111-71.111111v-625.777778c0-39.253333-31.857778-71.111111-71.111111-71.111111z m-355.555556 85.333333a42.666667 42.666667 0 0 1 42.666667 42.666667v42.666667h298.666666a42.666667 42.666667 0 1 1 0 85.333333H426.666667v85.333333h298.666666a42.666667 42.666667 0 1 1 0 85.333334H426.666667v85.333333h298.666666a42.666667 42.666667 0 1 1 0 85.333333H426.666667v42.666667a42.666667 42.666667 0 1 1-85.333334 0v-42.666667h-42.666666a42.666667 42.666667 0 1 1 0-85.333333H341.333333v-85.333333h-42.666666a42.666667 42.666667 0 0 1 0-85.333334H341.333333v-85.333333h-42.666666a42.666667 42.666667 0 0 1 0-85.333333H341.333333V256a42.666667 42.666667 0 0 1 42.666667-42.666667z" p-id="15993"></path></svg>