<?xml version="1.0" standalone="no"?><!DOCTYPE svg PUBLIC "-//W3C//DTD SVG 1.1//EN" "http://www.w3.org/Graphics/SVG/1.1/DTD/svg11.dtd"><svg t="1697594926140" class="icon" viewBox="0 0 1024 1024" version="1.1" xmlns="http://www.w3.org/2000/svg" p-id="14800" xmlns:xlink="http://www.w3.org/1999/xlink" width="200" height="200"><path d="M896 85.333333a42.666667 42.666667 0 0 1 42.666667 42.666667v768a42.666667 42.666667 0 0 1-42.666667 42.666667h-426.666667a42.666667 42.666667 0 0 1-42.666666-42.666667V128a42.666667 42.666667 0 0 1 42.666666-42.666667h426.666667z m-677.831111 0.284445l171.121778 21.390222a42.666667 42.666667 0 0 1 37.148444 46.592L351.800889 900.266667a42.666667 42.666667 0 0 1-46.705778 38.172444l-0.739555-0.056889-181.361778-21.333333a42.666667 42.666667 0 0 1-37.376-47.217778l85.333333-746.666667a42.666667 42.666667 0 0 1 47.217778-37.546666zM640 170.666667H512v682.666666h128V170.666667zM853.333333 170.666667h-128v682.666666H853.333333V170.666667z m-602.453333 5.006222l-75.662222 661.617778 95.971555 11.264L337.408 186.481778l-86.584889-10.808889z m325.12 101.660444a42.666667 42.666667 0 0 1 42.666667 42.666667V384a42.666667 42.666667 0 1 1-85.333334 0V320a42.666667 42.666667 0 0 1 42.666667-42.666667z m213.333333 0a42.666667 42.666667 0 0 1 42.666667 42.666667V384a42.666667 42.666667 0 1 1-85.333333 0V320a42.666667 42.666667 0 0 1 42.666666-42.666667z" p-id="14801"></path></svg>