<?xml version="1.0" standalone="no"?><!DOCTYPE svg PUBLIC "-//W3C//DTD SVG 1.1//EN" "http://www.w3.org/Graphics/SVG/1.1/DTD/svg11.dtd"><svg t="1697595049997" class="icon" viewBox="0 0 1024 1024" version="1.1" xmlns="http://www.w3.org/2000/svg" p-id="18823" xmlns:xlink="http://www.w3.org/1999/xlink" width="200" height="200"><path d="M500.224 23.04a42.666667 42.666667 0 0 1 23.893333 0l383.829334 112.128a42.666667 42.666667 0 0 1 30.72 40.96v229.944889c0 259.982222-166.4 490.894222-413.127111 573.098667a42.666667 42.666667 0 0 1-26.965334 0A604.16 604.16 0 0 1 85.333333 405.959111v-229.831111a42.666667 42.666667 0 0 1 30.72-40.96L500.224 23.04z m11.889778 85.333333L170.666667 208.042667v197.916444a518.826667 518.826667 0 0 0 339.854222 486.968889l1.536 0.512 1.536-0.512a518.769778 518.769778 0 0 0 339.512889-470.983111l0.227555-15.928889V208.156444L512.113778 108.373333z" p-id="18824"></path></svg>