<?xml version="1.0" standalone="no"?><!DOCTYPE svg PUBLIC "-//W3C//DTD SVG 1.1//EN" "http://www.w3.org/Graphics/SVG/1.1/DTD/svg11.dtd"><svg t="1697595099775" class="icon" viewBox="0 0 1024 1024" version="1.1" xmlns="http://www.w3.org/2000/svg" p-id="21058" xmlns:xlink="http://www.w3.org/1999/xlink" width="200" height="200"><path d="M755.484444 183.182222l55.182223 55.125334 55.182222-55.182223a42.666667 42.666667 0 0 1 60.302222 60.359111l-55.125333 55.182223 55.182222 55.182222a42.666667 42.666667 0 0 1-60.359111 60.302222l-55.182222-55.125333-55.182223 55.182222a42.666667 42.666667 0 0 1-60.302222-60.359111l55.125334-55.182222-55.182223-55.182223a42.666667 42.666667 0 0 1 60.359111-60.302222z m151.096889 428.714667a42.666667 42.666667 0 0 1 64.170667 56.206222l-149.333333 170.666667a42.666667 42.666667 0 0 1-62.236445 2.048l-85.333333-85.333334a42.666667 42.666667 0 0 1 60.302222-60.302222l53.077333 53.020445 119.352889-136.305778zM554.666667 170.666667a42.666667 42.666667 0 0 1 42.666666 42.666666v170.666667a42.666667 42.666667 0 0 1-42.666666 42.666667H85.333333a42.666667 42.666667 0 0 1-42.666666-42.666667v-170.666667A42.666667 42.666667 0 0 1 85.333333 170.666667h469.333334zM512 256H128V341.333333H512V256z m42.666667 341.333333a42.666667 42.666667 0 0 1 42.666666 42.666667v170.666667a42.666667 42.666667 0 0 1-42.666666 42.666666H85.333333a42.666667 42.666667 0 0 1-42.666666-42.666666v-170.666667a42.666667 42.666667 0 0 1 42.666666-42.666667h469.333334zM512 682.666667H128v85.333333H512V682.666667z" p-id="21059"></path></svg>