<?xml version="1.0" standalone="no"?><!DOCTYPE svg PUBLIC "-//W3C//DTD SVG 1.1//EN" "http://www.w3.org/Graphics/SVG/1.1/DTD/svg11.dtd"><svg t="1697595123892" class="icon" viewBox="0 0 1024 1024" version="1.1" xmlns="http://www.w3.org/2000/svg" p-id="21654" xmlns:xlink="http://www.w3.org/1999/xlink" width="200" height="200"><path d="M938.666667 170.666667a42.666667 42.666667 0 1 1 0 85.333333h-42.666667V512a384 384 0 1 1-768 0V256H85.333333a42.666667 42.666667 0 0 1 0-85.333333h853.333334z m-128 85.333333H213.333333V512a298.666667 298.666667 0 1 0 597.333334 0V256zM512 341.333333a170.666667 170.666667 0 1 1 0 341.333334 170.666667 170.666667 0 0 1 0-341.333334z m0 85.333334a85.333333 85.333333 0 1 0 0 170.666666 85.333333 85.333333 0 0 0 0-170.666666z" p-id="21655"></path></svg>