<?xml version="1.0" standalone="no"?><!DOCTYPE svg PUBLIC "-//W3C//DTD SVG 1.1//EN" "http://www.w3.org/Graphics/SVG/1.1/DTD/svg11.dtd"><svg t="1697595097721" class="icon" viewBox="0 0 1024 1024" version="1.1" xmlns="http://www.w3.org/2000/svg" p-id="20909" xmlns:xlink="http://www.w3.org/1999/xlink" width="200" height="200"><path d="M938.666667 170.666667a42.666667 42.666667 0 0 1 42.666666 42.666666V853.333333a42.666667 42.666667 0 0 1-42.666666 42.666667h-853.333334A42.666667 42.666667 0 0 1 42.666667 853.333333V213.333333A42.666667 42.666667 0 0 1 85.333333 170.666667h853.333334z m-42.666667 85.333333H128v554.666667h768V256z m-659.569778 49.493333l166.229334 106.837334 75.662222-97.166223a42.666667 42.666667 0 0 1 67.356444 52.337778L474.737778 458.695111l133.290666 85.674667 168.277334-228.352a42.666667 42.666667 0 0 1 68.721778 50.631111l-165.091556 223.914667 153.827556 98.872888a42.666667 42.666667 0 0 1-46.193778 71.793778l-158.321778-101.831111-82.887111 112.583111a42.666667 42.666667 0 0 1-68.721778-50.631111l79.701333-108.202667-135.168-86.869333-175.160888 225.28a42.666667 42.666667 0 1 1-67.356445-52.394667l170.439111-219.249777-159.857778-102.684445a42.666667 42.666667 0 0 1 46.193778-71.793778z" p-id="20910"></path></svg>