<?xml version="1.0" standalone="no"?><!DOCTYPE svg PUBLIC "-//W3C//DTD SVG 1.1//EN" "http://www.w3.org/Graphics/SVG/1.1/DTD/svg11.dtd"><svg t="1697595116849" class="icon" viewBox="0 0 1024 1024" version="1.1" xmlns="http://www.w3.org/2000/svg" p-id="21505" xmlns:xlink="http://www.w3.org/1999/xlink" width="200" height="200"><path d="M512 42.666667c79.473778 0 156.216889 19.797333 224.540444 57.116444a42.666667 42.666667 0 1 1-40.846222 74.922667 384 384 0 1 0 153.656889 153.6 42.666667 42.666667 0 0 1 74.865778-40.846222A469.333333 469.333333 0 1 1 512 42.666667z m456.817778 12.515555a42.666667 42.666667 0 0 1 0 60.302222l-426.666667 426.666667a42.666667 42.666667 0 0 1-60.302222-60.302222l426.666667-426.666667a42.666667 42.666667 0 0 1 60.302222 0z" p-id="21506"></path></svg>