<?xml version="1.0" standalone="no"?><!DOCTYPE svg PUBLIC "-//W3C//DTD SVG 1.1//EN" "http://www.w3.org/Graphics/SVG/1.1/DTD/svg11.dtd"><svg t="1697595115043" class="icon" viewBox="0 0 1024 1024" version="1.1" xmlns="http://www.w3.org/2000/svg" p-id="21356" xmlns:xlink="http://www.w3.org/1999/xlink" width="200" height="200"><path d="M512 42.666667a469.333333 469.333333 0 1 1 0 938.666666A469.333333 469.333333 0 0 1 512 42.666667z m-381.667556 426.666666h104.334223a42.666667 42.666667 0 0 1 0 85.333334H130.332444a384.170667 384.170667 0 0 0 339.057778 339.000889l-0.056889-104.334223a42.666667 42.666667 0 1 1 85.333334 0v104.334223A384.170667 384.170667 0 0 0 893.724444 554.666667L768 554.666667a42.666667 42.666667 0 1 1 0-85.333334h125.667556A384.170667 384.170667 0 0 0 554.666667 130.332444L554.666667 234.666667a42.666667 42.666667 0 0 1-85.333334 0V130.332444a384.170667 384.170667 0 0 0-339.000889 339.057778z" p-id="21357"></path></svg>