<?xml version="1.0" standalone="no"?><!DOCTYPE svg PUBLIC "-//W3C//DTD SVG 1.1//EN" "http://www.w3.org/Graphics/SVG/1.1/DTD/svg11.dtd"><svg t="1697594929563" class="icon" viewBox="0 0 1024 1024" version="1.1" xmlns="http://www.w3.org/2000/svg" p-id="14949" xmlns:xlink="http://www.w3.org/1999/xlink" width="200" height="200"><path d="M874.666667 128a42.666667 42.666667 0 0 1 42.666666 42.666667v512a42.666667 42.666667 0 0 1-42.666666 42.666666H149.333333a42.666667 42.666667 0 0 1-42.666666-42.666666V170.666667a42.666667 42.666667 0 0 1 42.666666-42.666667h725.333334z m-42.666667 85.333333H192v426.666667h640v-426.666667z m-143.018667 181.816889L567.751111 503.466667l-5.347555 3.982222a42.666667 42.666667 0 0 1-53.248-5.688889l3.811555-3.811556-3.811555 3.811556-0.853334-0.853333-6.087111-6.087111-30.72-30.72-7.395555-7.793778-51.029334 51.029333-13.653333 13.653333-11.093333 11.093334-10.069334 10.069333-4.778666 4.152889a42.666667 42.666667 0 0 1-55.580445-64.455111l10.126222-10.126222 17.635556-17.635556 53.248-53.248 13.653333-13.653333 21.162667-21.162667 0.796444 0.739556 5.12 5.233777L437.475556 369.777778l-3.811556-3.811556a42.666667 42.666667 0 0 1 60.302222 0l-3.754666 3.811556-2.161778 2.104889-4.608 4.664889-1.991111 1.991111 4.721777-4.778667 7.054223-7.054222 0.796444-0.739556 46.876445 46.933334 92.046222-82.147556 5.006222-3.811556a42.666667 42.666667 0 0 1 51.768889 67.527112z m-411.192889 458.638222l469.333334 4.778667a42.666667 42.666667 0 0 1-0.910222 85.333333l-469.333334-4.778666a42.666667 42.666667 0 0 1 0.910222-85.333334z" p-id="14950"></path></svg>