<?xml version="1.0" standalone="no"?><!DOCTYPE svg PUBLIC "-//W3C//DTD SVG 1.1//EN" "http://www.w3.org/Graphics/SVG/1.1/DTD/svg11.dtd"><svg t="1697595278203" class="icon" viewBox="0 0 1024 1024" version="1.1" xmlns="http://www.w3.org/2000/svg" p-id="27429" xmlns:xlink="http://www.w3.org/1999/xlink" width="200" height="200"><path d="M512 42.666667c164.977778 0 298.666667 133.688889 298.666667 298.666666v170.666667a298.723556 298.723556 0 0 1-256 295.651556v88.348444H682.666667a42.666667 42.666667 0 1 1 0 85.333333H341.333333a42.666667 42.666667 0 1 1 0-85.333333h128v-88.348444A298.723556 298.723556 0 0 1 213.333333 512V341.333333C213.333333 176.355556 347.022222 42.666667 512 42.666667z m0 85.333333A213.333333 213.333333 0 0 0 298.666667 341.333333v170.666667a213.333333 213.333333 0 0 0 426.666666 0V341.333333A213.333333 213.333333 0 0 0 512 128z m0 448a42.666667 42.666667 0 1 1 0 85.333333 42.666667 42.666667 0 0 1 0-85.333333z m0-384a170.666667 170.666667 0 1 1 0 341.333333 170.666667 170.666667 0 0 1 0-341.333333z m0 85.333333a85.333333 85.333333 0 1 0 0 170.666667 85.333333 85.333333 0 0 0 0-170.666667z" p-id="27430"></path></svg>