<?xml version="1.0" standalone="no"?><!DOCTYPE svg PUBLIC "-//W3C//DTD SVG 1.1//EN" "http://www.w3.org/Graphics/SVG/1.1/DTD/svg11.dtd"><svg t="1697595285506" class="icon" viewBox="0 0 1024 1024" version="1.1" xmlns="http://www.w3.org/2000/svg" p-id="27727" xmlns:xlink="http://www.w3.org/1999/xlink" width="200" height="200"><path d="M803.555556 128A156.444444 156.444444 0 0 1 960 284.444444v284.444445a156.444444 156.444444 0 0 1-156.444444 156.444444H220.444444A156.444444 156.444444 0 0 1 64 568.888889V284.444444a156.444444 156.444444 0 0 1 156.444444-156.444444h583.111112z m0 85.333333H220.444444c-39.253333 0-71.111111 31.857778-71.111111 71.111111v284.444445c0 39.253333 31.857778 71.111111 71.111111 71.111111h583.111112c39.253333 0 71.111111-31.857778 71.111111-71.111111V284.444444c0-39.253333-31.857778-71.111111-71.111111-71.111111zM554.666667 256a42.666667 42.666667 0 1 1 0 85.333333h-85.333334a42.666667 42.666667 0 0 1 0-85.333333h85.333334z m384 554.666667a42.666667 42.666667 0 1 1 0 85.333333h-853.333334a42.666667 42.666667 0 1 1 0-85.333333h853.333334z" p-id="27728"></path></svg>