<?xml version="1.0" standalone="no"?><!DOCTYPE svg PUBLIC "-//W3C//DTD SVG 1.1//EN" "http://www.w3.org/Graphics/SVG/1.1/DTD/svg11.dtd"><svg t="1697595291788" class="icon" viewBox="0 0 1024 1024" version="1.1" xmlns="http://www.w3.org/2000/svg" p-id="28025" xmlns:xlink="http://www.w3.org/1999/xlink" width="200" height="200"><path d="M832 85.333333c58.936889 0 106.666667 47.786667 106.666667 106.666667v640c0 58.936889-47.786667 106.666667-106.666667 106.666667H192A106.666667 106.666667 0 0 1 85.333333 832V192c0-58.936889 47.786667-106.666667 106.666667-106.666667h640zM298.666667 170.666667H192A21.333333 21.333333 0 0 0 170.666667 192v640c0 11.776 9.557333 21.333333 21.333333 21.333333h640a21.333333 21.333333 0 0 0 21.333333-21.333333V192A21.333333 21.333333 0 0 0 832 170.666667H725.333333v170.666666a42.666667 42.666667 0 0 1-42.666666 42.666667H341.333333A42.666667 42.666667 0 0 1 298.666667 341.333333V170.666667z m362.666666 554.666666a42.666667 42.666667 0 1 1 0 85.333334h-298.666666a42.666667 42.666667 0 1 1 0-85.333334h298.666666zM640 170.666667h-256v128h256V170.666667z" p-id="28026"></path></svg>