<?xml version="1.0" standalone="no"?><!DOCTYPE svg PUBLIC "-//W3C//DTD SVG 1.1//EN" "http://www.w3.org/Graphics/SVG/1.1/DTD/svg11.dtd"><svg t="1697766360980" class="icon" viewBox="0 0 1024 1024" version="1.1" xmlns="http://www.w3.org/2000/svg" p-id="5461" xmlns:xlink="http://www.w3.org/1999/xlink" width="200" height="200"><path d="M739.555556 42.666667a156.444444 156.444444 0 0 1 156.444444 156.444444v625.777778A156.444444 156.444444 0 0 1 739.555556 981.333333H284.444444a156.444444 156.444444 0 0 1-156.444444-156.444444v-625.777778A156.444444 156.444444 0 0 1 284.444444 42.666667h455.111112z m0 85.333333H284.444444c-39.253333 0-71.111111 31.857778-71.111111 71.111111v625.777778c0 39.253333 31.857778 71.111111 71.111111 71.111111h455.111112c39.253333 0 71.111111-31.857778 71.111111-71.111111v-625.777778c0-39.253333-31.857778-71.111111-71.111111-71.111111zM704 682.666667a42.666667 42.666667 0 1 1 0 85.333333h-256a42.666667 42.666667 0 1 1 0-85.333333h256z m-384 0a42.666667 42.666667 0 1 1 0 85.333333 42.666667 42.666667 0 0 1 0-85.333333z m384-213.333334a42.666667 42.666667 0 1 1 0 85.333334h-256a42.666667 42.666667 0 0 1 0-85.333334h256z m-384 0a42.666667 42.666667 0 1 1 0 85.333334 42.666667 42.666667 0 0 1 0-85.333334z m384-213.333333a42.666667 42.666667 0 1 1 0 85.333333h-256a42.666667 42.666667 0 0 1 0-85.333333h256z m-384 0a42.666667 42.666667 0 1 1 0 85.333333 42.666667 42.666667 0 0 1 0-85.333333z" p-id="5462"></path></svg>