<?xml version="1.0" standalone="no"?><!DOCTYPE svg PUBLIC "-//W3C//DTD SVG 1.1//EN" "http://www.w3.org/Graphics/SVG/1.1/DTD/svg11.dtd"><svg t="1697595131859" class="icon" viewBox="0 0 1024 1024" version="1.1" xmlns="http://www.w3.org/2000/svg" p-id="22250" xmlns:xlink="http://www.w3.org/1999/xlink" width="200" height="200"><path d="M810.666667 42.666667a85.333333 85.333333 0 0 1 85.333333 85.333333v448a42.666667 42.666667 0 1 1-85.333333 0V128H213.333333v768h234.666667a42.666667 42.666667 0 1 1 0 85.333333H213.333333a85.333333 85.333333 0 0 1-85.333333-85.333333V128a85.333333 85.333333 0 0 1 85.333333-85.333333h597.333334zM682.666667 640a149.333333 149.333333 0 0 1 143.189333 191.715556l76.003556 48.583111a42.666667 42.666667 0 0 1-45.909334 71.907555l-76.686222-48.924444A149.333333 149.333333 0 1 1 682.666667 640z m0 85.333333a64 64 0 1 0 45.226666 109.226667l3.868445-4.323556a43.008 43.008 0 0 1 7.964444-12.060444A64 64 0 0 0 682.666667 725.333333z m-318.122667-170.666666l128 5.688889a42.666667 42.666667 0 0 1-3.754667 85.333333l-128-5.688889a42.666667 42.666667 0 0 1 3.754667-85.333333z m296.789333-170.666667a42.666667 42.666667 0 1 1 0 85.333333h-298.666666a42.666667 42.666667 0 0 1 0-85.333333h298.666666z m0-170.666667a42.666667 42.666667 0 1 1 0 85.333334h-298.666666a42.666667 42.666667 0 0 1 0-85.333334h298.666666z" p-id="22251"></path></svg>