<?xml version="1.0" standalone="no"?><!DOCTYPE svg PUBLIC "-//W3C//DTD SVG 1.1//EN" "http://www.w3.org/Graphics/SVG/1.1/DTD/svg11.dtd"><svg t="1697595145442" class="icon" viewBox="0 0 1024 1024" version="1.1" xmlns="http://www.w3.org/2000/svg" p-id="22548" xmlns:xlink="http://www.w3.org/1999/xlink" width="200" height="200"><path d="M755.370667 71.111111a42.666667 42.666667 0 0 1 35.271111 18.659556l154.851555 227.555555a42.666667 42.666667 0 0 1-6.826666 55.751111v409.144889a156.444444 156.444444 0 0 1-156.444445 156.444445h-540.444444a156.444444 156.444444 0 0 1-156.444445-156.444445V373.020444l-0.512-0.341333a42.666667 42.666667 0 0 1-6.314666-55.352889l154.851555-227.555555a42.666667 42.666667 0 0 1 35.271111-18.659556h486.741334z m26.851555 227.555556h-540.444444C202.524444 298.666667 170.666667 330.524444 170.666667 369.777778v412.444444c0 39.253333 31.857778 71.111111 71.111111 71.111111h540.444444c39.253333 0 71.111111-31.857778 71.111111-71.111111V369.777778c0-39.253333-31.857778-71.111111-71.111111-71.111111z m-143.303111 170.837333a42.666667 42.666667 0 0 1 0 85.333333h-256a42.666667 42.666667 0 1 1 0-85.333333h256z m93.866667-313.059556H291.157333l-38.684444 56.888889h519.054222l-38.741333-56.888889z" p-id="22549"></path></svg>