<?xml version="1.0" standalone="no"?><!DOCTYPE svg PUBLIC "-//W3C//DTD SVG 1.1//EN" "http://www.w3.org/Graphics/SVG/1.1/DTD/svg11.dtd"><svg t="1697595036870" class="icon" viewBox="0 0 1024 1024" version="1.1" xmlns="http://www.w3.org/2000/svg" p-id="18227" xmlns:xlink="http://www.w3.org/1999/xlink" width="200" height="200"><path d="M768 42.666667a85.333333 85.333333 0 0 1 85.333333 85.333333V938.666667a42.666667 42.666667 0 0 1-67.470222 34.702222l-124.529778-88.974222-124.586666 88.974222a42.666667 42.666667 0 0 1-43.804445 3.470222l-5.688889-3.413333-124.586666-89.031111-124.586667 88.974222a42.666667 42.666667 0 0 1-67.015111-28.728889L170.666667 938.666667V128A85.333333 85.333333 0 0 1 256 42.666667h512z m0 85.333333h-512v727.722667l81.92-58.424889a42.666667 42.666667 0 0 1 43.804444-3.470222l5.688889 3.413333L512 886.272l124.586667-88.917333a42.666667 42.666667 0 0 1 43.804444-3.470223l5.802667 3.413334 81.863111 58.538666V128z m-128 469.333333a42.666667 42.666667 0 1 1 0 85.333334h-256a42.666667 42.666667 0 1 1 0-85.333334h256z m0-170.666666a42.666667 42.666667 0 1 1 0 85.333333h-256a42.666667 42.666667 0 0 1 0-85.333333h256z m0-170.666667a42.666667 42.666667 0 1 1 0 85.333333h-256a42.666667 42.666667 0 0 1 0-85.333333h256z" p-id="18228"></path></svg>