<?xml version="1.0" standalone="no"?><!DOCTYPE svg PUBLIC "-//W3C//DTD SVG 1.1//EN" "http://www.w3.org/Graphics/SVG/1.1/DTD/svg11.dtd"><svg t="1697594996833" class="icon" viewBox="0 0 1024 1024" version="1.1" xmlns="http://www.w3.org/2000/svg" p-id="16737" xmlns:xlink="http://www.w3.org/1999/xlink" width="200" height="200"><path d="M549.005084 85.333333l469.333334 810.666667a42.666667 42.666667 0 0 1-36.977778 64H42.693973a42.666667 42.666667 0 0 1-36.920889-64.056889L475.106418 85.333333a42.666667 42.666667 0 0 1 73.841778 0zM512.027307 191.772444L116.649529 874.666667h790.698667L512.027307 191.829333z m0 512.170667a42.666667 42.666667 0 0 1 42.666666 42.666667v21.333333a42.666667 42.666667 0 1 1-85.333333 0v-21.333333a42.666667 42.666667 0 0 1 42.666667-42.666667z m0-341.333333a42.666667 42.666667 0 0 1 42.666666 42.666666l0.170667 213.333334a42.666667 42.666667 0 0 1-85.333333 0l-0.170667-213.333334a42.666667 42.666667 0 0 1 42.666667-42.666666z" p-id="16738"></path></svg>