<?xml version="1.0" standalone="no"?><!DOCTYPE svg PUBLIC "-//W3C//DTD SVG 1.1//EN" "http://www.w3.org/Graphics/SVG/1.1/DTD/svg11.dtd"><svg t="1697595152398" class="icon" viewBox="0 0 1024 1024" version="1.1" xmlns="http://www.w3.org/2000/svg" p-id="22995" xmlns:xlink="http://www.w3.org/1999/xlink" width="200" height="200"><path d="M714.105263 74.105263a40.421053 40.421053 0 0 1 40.421053 40.421053v80.842105h80.842105a40.421053 40.421053 0 0 1 40.421053 40.421053v687.157894a40.421053 40.421053 0 0 1-57.990737 36.378948l-245.221053-118.298948L327.464421 959.326316a40.421053 40.421053 0 0 1-57.667368-30.935579L269.473684 922.947368v-116.520421l-62.787368 31.420632a40.421053 40.421053 0 0 1-58.47579-36.163368V114.526316a40.421053 40.421053 0 0 1 40.421053-40.421053h525.473684z m80.842105 202.105263H350.315789V858.543158l204.8-98.789053a40.421053 40.421053 0 0 1 29.372632-2.209684l5.712842 2.209684 204.746105 98.789053V276.210526z m-121.263157-121.263158H229.052632v581.308632l40.421052-20.210526V235.789474a40.421053 40.421053 0 0 1 40.421053-40.421053h363.789474v-40.421053z" p-id="22996"></path></svg>