<?xml version="1.0" standalone="no"?><!DOCTYPE svg PUBLIC "-//W3C//DTD SVG 1.1//EN" "http://www.w3.org/Graphics/SVG/1.1/DTD/svg11.dtd"><svg t="1697595266777" class="icon" viewBox="0 0 1024 1024" version="1.1" xmlns="http://www.w3.org/2000/svg" p-id="26720" xmlns:xlink="http://www.w3.org/1999/xlink" width="200" height="200"><path d="M128 85.333333a42.666667 42.666667 0 0 1 42.666667 42.666667V853.333333h725.333333a42.666667 42.666667 0 0 1 42.268444 36.864l0.398223 5.802667a42.666667 42.666667 0 0 1-42.666667 42.666667H128a42.666667 42.666667 0 0 1-42.666667-42.666667V128a42.666667 42.666667 0 0 1 42.666667-42.666667z m786.318222 4.152889a42.666667 42.666667 0 0 1 20.195556 56.888889l-213.333334 447.943111a42.666667 42.666667 0 0 1-67.072 13.368889L482.417778 453.176889l-145.635556 291.271111a42.666667 42.666667 0 0 1-51.825778 21.276444l-5.347555-2.275555a42.666667 42.666667 0 0 1-19.114667-57.173333l170.666667-341.333334a42.666667 42.666667 0 0 1 66.730667-12.629333l170.780444 153.713778 188.814222-396.344889a42.666667 42.666667 0 0 1 56.888889-20.195556z" p-id="26721"></path></svg>