<?xml version="1.0" standalone="no"?><!DOCTYPE svg PUBLIC "-//W3C//DTD SVG 1.1//EN" "http://www.w3.org/Graphics/SVG/1.1/DTD/svg11.dtd"><svg t="1705371889642" class="icon" viewBox="0 0 1024 1024" version="1.1" xmlns="http://www.w3.org/2000/svg" p-id="4726" xmlns:xlink="http://www.w3.org/1999/xlink" width="200" height="200"><path d="M746.666667 42.666667a42.666667 42.666667 0 0 1 42.666666 42.666666V170.666667h85.333334a42.666667 42.666667 0 0 1 42.666666 42.666666V938.666667a42.666667 42.666667 0 0 1-42.666666 42.666666h-597.333334a42.666667 42.666667 0 0 1-42.666666-42.666666V853.333333h-85.333334a42.666667 42.666667 0 0 1-42.666666-42.666666V106.666667C106.666667 71.338667 135.338667 42.666667 170.666667 42.666667h576z m85.333333 213.333333h-512v640h512V256z m-128-128h-512V768h42.666667V213.333333a42.666667 42.666667 0 0 1 42.666666-42.666666h426.666667v-42.666667z m0 469.333333a42.666667 42.666667 0 1 1 0 85.333334h-256a42.666667 42.666667 0 1 1 0-85.333334h256z m0-170.666666a42.666667 42.666667 0 1 1 0 85.333333h-256a42.666667 42.666667 0 0 1 0-85.333333h256z" p-id="4727"></path></svg>