<?xml version="1.0" standalone="no"?><!DOCTYPE svg PUBLIC "-//W3C//DTD SVG 1.1//EN" "http://www.w3.org/Graphics/SVG/1.1/DTD/svg11.dtd"><svg t="1705371898602" class="icon" viewBox="0 0 1024 1024" version="1.1" xmlns="http://www.w3.org/2000/svg" p-id="4860" xmlns:xlink="http://www.w3.org/1999/xlink" width="200" height="200"><path d="M682.666667 64a42.666667 42.666667 0 0 1 42.666666 42.666667v21.333333h149.333334a85.333333 85.333333 0 0 1 85.333333 85.333333v661.333334a85.333333 85.333333 0 0 1-85.333333 85.333333H149.333333a85.333333 85.333333 0 0 1-85.333333-85.333333V213.333333a85.333333 85.333333 0 0 1 85.333333-85.333333H298.666667v-21.333333a42.666667 42.666667 0 0 1 85.333333 0v21.333333h256v-21.333333a42.666667 42.666667 0 0 1 42.666667-42.666667z m192 384H149.333333v426.666667h725.333334v-426.666667z m-119.182223 55.182222a42.666667 42.666667 0 0 1 0 60.302222l-256 256a42.666667 42.666667 0 0 1-60.302222 0l-128-128a42.666667 42.666667 0 0 1 60.302222-60.302222l97.848889 97.792 225.848889-225.848889a42.666667 42.666667 0 0 1 60.302222 0zM298.666667 213.333333H149.333333v149.333334h725.333334V213.333333H725.333333v64a42.666667 42.666667 0 1 1-85.333333 0V213.333333h-256v64a42.666667 42.666667 0 0 1-85.333333 0V213.333333z" p-id="4861"></path></svg>