<?xml version="1.0" standalone="no"?><!DOCTYPE svg PUBLIC "-//W3C//DTD SVG 1.1//EN" "http://www.w3.org/Graphics/SVG/1.1/DTD/svg11.dtd"><svg t="1697594980320" class="icon" viewBox="0 0 1024 1024" version="1.1" xmlns="http://www.w3.org/2000/svg" p-id="16439" xmlns:xlink="http://www.w3.org/1999/xlink" width="200" height="200"><path d="M938.666667 64a42.666667 42.666667 0 0 1 42.666666 42.666667v554.666666a42.666667 42.666667 0 0 1-42.666666 42.666667h-853.333334a42.666667 42.666667 0 0 1-42.666666-42.666667v-554.666666a42.666667 42.666667 0 0 1 42.666666-42.666667h853.333334z m-42.666667 85.333333H128v469.333334h768v-469.333334zM478.208 289.223111l108.771556 97.792 100.465777-66.958222a42.666667 42.666667 0 0 1 55.296 6.826667l3.868445 5.006222a42.666667 42.666667 0 0 1-11.832889 59.164444l-128 85.333334a42.666667 42.666667 0 0 1-52.167111-3.754667L444.586667 373.76 329.443556 442.88a42.666667 42.666667 0 0 1-55.182223-9.898667l-3.413333-4.778666a42.666667 42.666667 0 0 1 14.677333-58.538667l142.222223-85.333333a42.666667 42.666667 0 0 1 50.460444 4.892444zM298.666667 746.666667c43.747556 0 81.351111 26.339556 97.792 64h499.541333a42.666667 42.666667 0 1 1 0 85.333333l-499.598222 0.056889a106.666667 106.666667 0 0 1-195.470222 0L128 896a42.666667 42.666667 0 1 1 0-85.333333h72.874667c16.497778-37.660444 54.044444-64 97.792-64z m0 85.333333a21.333333 21.333333 0 1 0 0 42.666667 21.333333 21.333333 0 0 0 0-42.666667z" p-id="16440"></path></svg>