<?xml version="1.0" standalone="no"?><!DOCTYPE svg PUBLIC "-//W3C//DTD SVG 1.1//EN" "http://www.w3.org/Graphics/SVG/1.1/DTD/svg11.dtd"><svg t="1705472631510" class="icon" viewBox="0 0 1024 1024" version="1.1" xmlns="http://www.w3.org/2000/svg" p-id="4756" xmlns:xlink="http://www.w3.org/1999/xlink" width="200" height="200"><path d="M839.111111 85.333333c27.477333 0 50.972444 9.671111 70.371556 29.184 19.456 19.399111 29.184 42.894222 29.184 70.371556v654.222222c0 27.477333-9.671111 50.972444-29.184 70.371556a95.914667 95.914667 0 0 1-70.371556 29.184H184.888889c-27.477333 0-50.972444-9.671111-70.371556-29.184A95.914667 95.914667 0 0 1 85.333333 839.111111V184.888889c0-27.477333 9.671111-50.972444 29.184-70.371556A95.914667 95.914667 0 0 1 184.888889 85.333333h654.222222z m0 85.333334H184.888889a13.653333 13.653333 0 0 0-10.069333 4.152889A13.653333 13.653333 0 0 0 170.666667 184.888889v654.222222c0 9.500444 4.721778 14.222222 14.222222 14.222222h654.222222c9.500444 0 14.222222-4.721778 14.222222-14.222222V184.888889c0-9.500444-4.721778-14.222222-14.222222-14.222222zM448 533.333333a42.552889 42.552889 0 0 1 42.666667 42.666667v170.666667a42.552889 42.552889 0 0 1-42.666667 42.666666h-170.666667a42.552889 42.552889 0 0 1-42.666666-42.666666v-170.666667a42.552889 42.552889 0 0 1 42.666666-42.666667h170.666667z m298.666667 170.666667a42.552889 42.552889 0 0 1 39.424 58.993778 42.552889 42.552889 0 0 1-39.424 26.339555h-170.666667a42.552889 42.552889 0 0 1-39.424-58.993777 42.552889 42.552889 0 0 1 39.424-26.339556z m-341.333334-85.333333h-85.333333v85.333333h85.333333v-85.333333z m341.333334-64a42.552889 42.552889 0 0 1 39.424 58.993777 42.552889 42.552889 0 0 1-39.424 26.339556h-170.666667a42.552889 42.552889 0 0 1-39.424-58.993778 42.552889 42.552889 0 0 1 39.424-26.339555z m-298.666667-320a42.552889 42.552889 0 0 1 42.666667 42.666666v170.666667a42.552889 42.552889 0 0 1-42.666667 42.666667h-170.666667a42.552889 42.552889 0 0 1-42.666666-42.666667v-170.666667a42.552889 42.552889 0 0 1 42.666666-42.666666h170.666667z m298.666667 149.333333a42.552889 42.552889 0 0 1 39.424 58.993778 42.552889 42.552889 0 0 1-39.424 26.339555h-170.666667a42.552889 42.552889 0 0 1-39.424-58.993777 42.552889 42.552889 0 0 1 39.424-26.339556z m-341.333334-64h-85.333333v85.333333h85.333333v-85.333333z m341.333334-85.333333a42.552889 42.552889 0 0 1 39.424 58.993777 42.552889 42.552889 0 0 1-39.424 26.339556h-170.666667a42.552889 42.552889 0 0 1-39.424-58.993778 42.552889 42.552889 0 0 1 39.424-26.339555z" p-id="4757"></path></svg>