<?xml version="1.0" standalone="no"?><!DOCTYPE svg PUBLIC "-//W3C//DTD SVG 1.1//EN" "http://www.w3.org/Graphics/SVG/1.1/DTD/svg11.dtd"><svg t="1697766367149" class="icon" viewBox="0 0 1024 1024" version="1.1" xmlns="http://www.w3.org/2000/svg" p-id="5610" xmlns:xlink="http://www.w3.org/1999/xlink" width="200" height="200"><path d="M719.063579 574.356211a181.894737 181.894737 0 0 1 0 363.789473h-444.631579a181.894737 181.894737 0 0 1 0-363.789473h444.631579z m0 80.842105h-444.631579a101.052632 101.052632 0 0 0 0 202.105263h444.631579a101.052632 101.052632 0 0 0 0-202.105263z m-20.210526-525.473684a202.105263 202.105263 0 1 1 0 404.210526 202.105263 202.105263 0 0 1 0-404.210526z m-282.947369 20.210526a40.421053 40.421053 0 0 1 0 80.842105h-202.105263a40.421053 40.421053 0 0 0-40.421053 40.421053v121.263158c0 22.312421 18.108632 40.421053 40.421053 40.421052h202.105263a40.421053 40.421053 0 0 1 0 80.842106h-202.105263a121.263158 121.263158 0 0 1-121.263158-121.263158v-121.263158a121.263158 121.263158 0 0 1 121.263158-121.263158h202.105263z m282.947369 60.631579a121.263158 121.263158 0 1 0 0 242.526316 121.263158 121.263158 0 0 0 0-242.526316z m0 60.631579a60.631579 60.631579 0 1 1 0 121.263158 60.631579 60.631579 0 0 1 0-121.263158z" p-id="5611"></path></svg>