<?xml version="1.0" standalone="no"?><!DOCTYPE svg PUBLIC "-//W3C//DTD SVG 1.1//EN" "http://www.w3.org/Graphics/SVG/1.1/DTD/svg11.dtd"><svg t="1697594948095" class="icon" viewBox="0 0 1024 1024" version="1.1" xmlns="http://www.w3.org/2000/svg" p-id="15247" xmlns:xlink="http://www.w3.org/1999/xlink" width="200" height="200"><path d="M896 85.333333a42.666667 42.666667 0 0 1 42.666667 42.666667v768a42.666667 42.666667 0 0 1-42.666667 42.666667h-426.666667a42.666667 42.666667 0 0 1-42.666666-42.666667V128a42.666667 42.666667 0 0 1 42.666666-42.666667h426.666667z m-683.235556 0l5.859556 0.341334 170.666667 21.333333a42.666667 42.666667 0 0 1 37.148444 46.592L351.800889 900.266667a42.666667 42.666667 0 0 1-47.445333 38.115555l-181.361778-21.333333a42.666667 42.666667 0 0 1-37.376-47.217778l85.333333-746.666667a42.666667 42.666667 0 0 1 36.124445-37.376l5.688888-0.455111zM640 170.666667H512v682.666666h128V170.666667zM853.333333 170.666667h-128v682.666666H853.333333V170.666667z m-602.510222 5.006222L175.217778 837.233778l95.971555 11.320889L337.351111 186.481778l-86.528-10.808889z m325.176889 101.660444a42.666667 42.666667 0 0 1 42.666667 42.666667V384a42.666667 42.666667 0 1 1-85.333334 0V320a42.666667 42.666667 0 0 1 42.666667-42.666667z m213.333333 0a42.666667 42.666667 0 0 1 42.666667 42.666667V384a42.666667 42.666667 0 1 1-85.333333 0V320a42.666667 42.666667 0 0 1 42.666666-42.666667z" p-id="15248"></path></svg>