<?xml version="1.0" standalone="no"?><!DOCTYPE svg PUBLIC "-//W3C//DTD SVG 1.1//EN" "http://www.w3.org/Graphics/SVG/1.1/DTD/svg11.dtd"><svg t="1697595159263" class="icon" viewBox="0 0 1024 1024" version="1.1" xmlns="http://www.w3.org/2000/svg" p-id="23293" xmlns:xlink="http://www.w3.org/1999/xlink" width="200" height="200"><path d="M437.894737 114.526316a40.421053 40.421053 0 0 1 40.421052 40.421052V377.263158a40.421053 40.421053 0 0 1-40.421052 40.421053h-282.947369a40.421053 40.421053 0 0 1-40.421052-40.421053V154.947368a40.421053 40.421053 0 0 1 40.421052-40.421052h282.947369z m-40.421053 80.842105h-202.105263V336.842105h202.105263V195.368421z m485.052632 424.421053a40.421053 40.421053 0 0 1 40.421052 40.421052v222.31579a40.421053 40.421053 0 0 1-40.421052 40.421052h-282.947369a40.421053 40.421053 0 0 1-40.421052-40.421052V660.210526a40.421053 40.421053 0 0 1 40.421052-40.421052h282.947369z m-40.421053 80.842105h-202.105263v141.473684h202.105263V700.631579z m40.421053-586.105263a40.421053 40.421053 0 0 1 40.421052 40.421052V498.526316a40.421053 40.421053 0 0 1-40.421052 40.421052h-282.947369a40.421053 40.421053 0 0 1-40.421052-40.421052V154.947368a40.421053 40.421053 0 0 1 40.421052-40.421052h282.947369z m-40.421053 80.842105h-202.105263V458.105263h202.105263V195.368421z m-404.210526 303.157895a40.421053 40.421053 0 0 1 40.421052 40.421052v343.578948a40.421053 40.421053 0 0 1-40.421052 40.421052h-282.947369a40.421053 40.421053 0 0 1-40.421052-40.421052V538.947368a40.421053 40.421053 0 0 1 40.421052-40.421052h282.947369z m-40.421053 80.842105h-202.105263v262.736842h202.105263V579.368421z" p-id="23294"></path></svg>