<?xml version="1.0" standalone="no"?><!DOCTYPE svg PUBLIC "-//W3C//DTD SVG 1.1//EN" "http://www.w3.org/Graphics/SVG/1.1/DTD/svg11.dtd"><svg t="1697595179949" class="icon" viewBox="0 0 1024 1024" version="1.1" xmlns="http://www.w3.org/2000/svg" p-id="23889" xmlns:xlink="http://www.w3.org/1999/xlink" width="200" height="200"><path d="M85.333333 42.666667a42.666667 42.666667 0 0 1 42.666667 42.666666v810.666667H938.666667a42.666667 42.666667 0 0 1 42.268444 36.864l0.398222 5.802667a42.666667 42.666667 0 0 1-42.666666 42.666666h-853.333334a42.666667 42.666667 0 0 1-42.666666-42.666666v-853.333334A42.666667 42.666667 0 0 1 85.333333 42.666667z m854.129778 0l5.802667 0.512a42.666667 42.666667 0 0 1 35.555555 48.753777c-52.508444 336.156444-127.260444 562.631111-229.831111 676.124445l31.232-0.056889a42.666667 42.666667 0 1 1 0 85.333333h-113.777778a42.496 42.496 0 0 1-27.477333-10.012444 210.830222 210.830222 0 0 1-64.967111 10.012444c-197.404444 0-326.087111-257.422222-404.821333-761.400889a42.666667 42.666667 0 0 1 84.309333-13.198222C327.850667 541.866667 440.945778 768 576 768c135.054222 0 248.149333-226.133333 320.512-689.265778a42.666667 42.666667 0 0 1 37.319111-35.84l5.688889-0.227555zM327.111111 768a42.666667 42.666667 0 1 1 0 85.333333h-113.777778a42.666667 42.666667 0 1 1 0-85.333333h113.777778z" p-id="23890"></path></svg>