<?xml version="1.0" standalone="no"?><!DOCTYPE svg PUBLIC "-//W3C//DTD SVG 1.1//EN" "http://www.w3.org/Graphics/SVG/1.1/DTD/svg11.dtd"><svg t="1697595204614" class="icon" viewBox="0 0 1024 1024" version="1.1" xmlns="http://www.w3.org/2000/svg" p-id="25230" xmlns:xlink="http://www.w3.org/1999/xlink" width="200" height="200"><path d="M85.333333 42.666667a42.666667 42.666667 0 0 1 42.666667 42.666666v810.666667H938.666667a42.666667 42.666667 0 0 1 42.268444 36.864l0.398222 5.802667a42.666667 42.666667 0 0 1-42.666666 42.666666h-853.333334a42.666667 42.666667 0 0 1-42.666666-42.666666v-853.333334A42.666667 42.666667 0 0 1 85.333333 42.666667z m512 312.888889c192.227556 0 328.988444 147.342222 410.737778 428.999111a42.666667 42.666667 0 0 1-81.92 23.779555c-72.362667-249.287111-182.044444-367.445333-328.817778-367.445333s-256.455111 118.158222-328.817777 367.445333a42.666667 42.666667 0 0 1-81.92-23.779555C268.344889 502.897778 405.048889 355.555556 597.333333 355.555556z m-256-113.777778a42.666667 42.666667 0 0 1 0 85.333333H227.555556a42.666667 42.666667 0 0 1 0-85.333333h113.777777z m455.111111 0a42.666667 42.666667 0 1 1 0 85.333333h-113.777777a42.666667 42.666667 0 1 1 0-85.333333h113.777777z" p-id="25231"></path></svg>