<?xml version="1.0" standalone="no"?><!DOCTYPE svg PUBLIC "-//W3C//DTD SVG 1.1//EN" "http://www.w3.org/Graphics/SVG/1.1/DTD/svg11.dtd"><svg t="1697595196521" class="icon" viewBox="0 0 1024 1024" version="1.1" xmlns="http://www.w3.org/2000/svg" p-id="24783" xmlns:xlink="http://www.w3.org/1999/xlink" width="200" height="200"><path d="M725.333333 64a234.666667 234.666667 0 1 1 0 469.333333 234.666667 234.666667 0 0 1 0-469.333333z m0 85.333333a149.333333 149.333333 0 1 0 0 298.666667 149.333333 149.333333 0 0 0 0-298.666667zM256 341.333333a192 192 0 1 1 0 384A192 192 0 0 1 256 341.333333z m0 85.333334a106.666667 106.666667 0 1 0 0 213.333333 106.666667 106.666667 0 0 0 0-213.333333z m362.666667 213.333333a149.333333 149.333333 0 1 1 0 298.666667 149.333333 149.333333 0 0 1 0-298.666667z m0 85.333333a64 64 0 1 0 0 128 64 64 0 0 0 0-128z" p-id="24784"></path></svg>