<?xml version="1.0" standalone="no"?><!DOCTYPE svg PUBLIC "-//W3C//DTD SVG 1.1//EN" "http://www.w3.org/Graphics/SVG/1.1/DTD/svg11.dtd"><svg t="1697766345730" class="icon" viewBox="0 0 1024 1024" version="1.1" xmlns="http://www.w3.org/2000/svg" p-id="4716" xmlns:xlink="http://www.w3.org/1999/xlink" width="200" height="200"><path d="M298.666667 661.333333c73.272889 0 124.302222 17.464889 231.537777 68.096 96.028444 45.340444 138.638222 59.904 195.128889 59.904 63.032889 0 126.634667-19.057778 191.374223-57.912889a42.666667 42.666667 0 0 1 43.918222 73.159112c-77.482667 46.478222-156.103111 70.087111-235.292445 70.087111-73.272889 0-124.302222-17.464889-231.537777-68.096-96.028444-45.340444-138.638222-59.904-195.128889-59.904-63.032889 0-126.634667 19.057778-191.374223 57.912889a42.666667 42.666667 0 0 1-43.918222-73.159112c77.482667-46.478222 156.103111-70.087111 235.292445-70.087111z m0-256c73.272889 0 124.302222 17.464889 231.537777 68.096 96.028444 45.340444 138.638222 59.904 195.128889 59.904 63.032889 0 126.634667-19.057778 191.374223-57.912889a42.666667 42.666667 0 1 1 43.918222 73.159112c-77.482667 46.478222-156.103111 70.087111-235.292445 70.087111-73.272889 0-124.302222-17.464889-231.537777-68.096-96.028444-45.340444-138.638222-59.904-195.128889-59.904-63.032889 0-126.634667 19.057778-191.374223 57.912889a42.666667 42.666667 0 1 1-43.918222-73.159112C140.856889 428.942222 219.477333 405.333333 298.666667 405.333333z m0-256c73.272889 0 124.302222 17.464889 231.537777 68.096 96.028444 45.340444 138.638222 59.904 195.128889 59.904 63.032889 0 126.634667-19.057778 191.374223-57.912889a42.666667 42.666667 0 1 1 43.918222 73.159112c-77.482667 46.478222-156.103111 70.087111-235.292445 70.087111-73.272889 0-124.302222-17.464889-231.537777-68.096-96.028444-45.340444-138.638222-59.904-195.128889-59.904-63.032889 0-126.634667 19.057778-191.374223 57.912889a42.666667 42.666667 0 1 1-43.918222-73.159112C140.856889 172.942222 219.477333 149.333333 298.666667 149.333333z" p-id="4717"></path></svg>