<?xml version="1.0" standalone="no"?><!DOCTYPE svg PUBLIC "-//W3C//DTD SVG 1.1//EN" "http://www.w3.org/Graphics/SVG/1.1/DTD/svg11.dtd"><svg t="1697595171365" class="icon" viewBox="0 0 1024 1024" version="1.1" xmlns="http://www.w3.org/2000/svg" p-id="23442" xmlns:xlink="http://www.w3.org/1999/xlink" width="200" height="200"><path d="M298.666667 42.666667c116.280889 0 180.906667 98.360889 219.704889 263.281777 4.209778 17.92 9.671111 46.478222 15.075555 76.401778l5.290667 30.037334c6.314667 36.408889 11.832889 70.200889 14.051555 84.366222l0.910223 5.688889 0.113777 1.137777c15.928889 79.587556 28.216889 131.754667 47.559111 191.544889 41.528889 128 93.184 200.874667 145.294223 200.874667 66.958222 0 123.221333-124.984889 149.560889-388.266667a42.666667 42.666667 0 0 1 84.878222 8.533334c-30.549333 305.607111-102.286222 465.066667-234.439111 465.066666-104.391111 0-174.023111-98.304-226.417778-259.925333-20.707556-63.715556-33.564444-118.442667-50.062222-201.045333 0.568889 2.844444-23.04-144.725333-34.872889-194.844445C404.764444 195.925333 360.220444 128 298.666667 128c-82.488889 0-144.497778 123.904-170.894223 388.266667a42.666667 42.666667 0 1 1-84.878222-8.533334C73.329778 203.207111 153.6 42.666667 298.666667 42.666667z m64 426.666666a42.666667 42.666667 0 0 1 0 85.333334h-128a42.666667 42.666667 0 0 1 0-85.333334h128z m426.666666 0a42.666667 42.666667 0 1 1 0 85.333334h-128a42.666667 42.666667 0 1 1 0-85.333334h128z" p-id="23443"></path></svg>