<?xml version="1.0" standalone="no"?><!DOCTYPE svg PUBLIC "-//W3C//DTD SVG 1.1//EN" "http://www.w3.org/Graphics/SVG/1.1/DTD/svg11.dtd"><svg t="1697595052462" class="icon" viewBox="0 0 1024 1024" version="1.1" xmlns="http://www.w3.org/2000/svg" p-id="18972" xmlns:xlink="http://www.w3.org/1999/xlink" width="200" height="200"><path d="M810.666667 42.666667a85.333333 85.333333 0 0 1 85.333333 85.333333v768a85.333333 85.333333 0 0 1-85.333333 85.333333H213.333333a85.333333 85.333333 0 0 1-85.333333-85.333333V128a85.333333 85.333333 0 0 1 85.333333-85.333333h597.333334z m-405.333334 85.333333H213.333333v768h597.333334V128h-64v341.333333a42.666667 42.666667 0 0 1-73.500445 29.468445l-97.166222-101.603556-97.166222 101.603556a42.666667 42.666667 0 0 1-73.102222-23.552l-0.398223-5.916445v-341.333333z m256 0h-170.666666v235.008l54.499555-57.002667a42.666667 42.666667 0 0 1 56.832-4.323555l4.835556 4.323555 54.499555 57.002667V128z" p-id="18973"></path></svg>