<svg xmlns="http://www.w3.org/2000/svg" xmlns:xlink="http://www.w3.org/1999/xlink" fill="none" version="1.1" width="16" height="16" viewBox="0 0 16 16"><defs><clipPath id="master_svg0_7_4919"><rect x="0" y="0" width="16" height="16" rx="0"/></clipPath></defs><g clip-path="url(#master_svg0_7_4919)"><g><path d="M13.83338701171875,7.999921953125L13.83338701171875,3.333251953125L12.83338701171875,3.333251953125L12.83338701171875,7.999921953125Q12.83338701171875,10.001961953125,11.41770701171875,11.417601953125Q10.00206701171875,12.833251953125,8.00001701171875,12.833251953125Q5.99797701171875,12.833251953125,4.58233701171875,11.417601953125Q3.16668701171875,10.001961953125,3.16668701171875,7.999921953125L3.16668701171875,3.333251953125L2.16668701171875,3.333251953125L2.16668701171875,7.999921953125Q2.16668701171875,10.416171953125,3.87522701171875,12.124711953125Q5.58375701171875,13.833251953125,8.00001701171875,13.833251953125Q10.416277011718751,13.833251953125,12.12481701171875,12.124711953125Q13.83338701171875,10.416171953125,13.83338701171875,7.999921953125Z" fill-rule="evenodd" fill="#86909C" fill-opacity="1"/></g><g><path d="M1.33331298828125,3.833251953125L14.66661298828125,3.833251953125Q14.71591298828125,3.833251953125,14.76421298828125,3.823644953125Q14.81251298828125,3.814036953125,14.85801298828125,3.7951919531250002Q14.90351298828125,3.776345953125,14.94441298828125,3.748986953125Q14.98541298828125,3.721626953125,15.02021298828125,3.686804953125Q15.05501298828125,3.651982953125,15.08241298828125,3.611036953125Q15.10971298828125,3.570090953125,15.12861298828125,3.524593953125Q15.14741298828125,3.479096953125,15.15701298828125,3.430797053125Q15.16661298828125,3.382497653125,15.16661298828125,3.333251953125Q15.16661298828125,3.284006253125,15.15701298828125,3.235706853125Q15.14741298828125,3.187406953125,15.12861298828125,3.141909953125Q15.10971298828125,3.096412953125,15.08241298828125,3.055466953125Q15.05501298828125,3.014520953125,15.02021298828125,2.979698953125Q14.98541298828125,2.944876953125,14.94441298828125,2.917516953125Q14.90351298828125,2.890157953125,14.85801298828125,2.8713119531249998Q14.81251298828125,2.852466953125,14.76421298828125,2.842858953125Q14.71591298828125,2.833251953125,14.66661298828125,2.833251953125L1.33331298828125,2.833251953125Q1.28406728828125,2.833251953125,1.23576788828125,2.842858953125Q1.18746798828125,2.852466953125,1.1419709882812499,2.8713119531249998Q1.09647398828125,2.890157953125,1.05552798828125,2.917516953125Q1.01458198828125,2.944876953125,0.97975998828125,2.979698953125Q0.94493798828125,3.014520953125,0.91757798828125,3.055466953125Q0.89021898828125,3.096412953125,0.87137298828125,3.141909953125Q0.85252798828125,3.187406953125,0.8429199882812499,3.235706853125Q0.83331298828125,3.284006253125,0.83331298828125,3.333251953125Q0.83331298828125,3.382497653125,0.8429199882812499,3.430797053125Q0.85252798828125,3.479096953125,0.87137298828125,3.524593953125Q0.89021898828125,3.570090953125,0.91757798828125,3.611036953125Q0.94493798828125,3.651982953125,0.97975998828125,3.686804953125Q1.01458198828125,3.721626953125,1.05552798828125,3.748986953125Q1.09647398828125,3.776345953125,1.1419709882812499,3.7951919531250002Q1.18746798828125,3.814036953125,1.23576788828125,3.823644953125Q1.28406728828125,3.833251953125,1.33331298828125,3.833251953125Z" fill-rule="evenodd" fill="#86909C" fill-opacity="1"/></g><g><path d="M6.232234,6.232234Q5.5,6.964468,5.5,8Q5.5,9.03553,6.232234,9.76777Q6.964468,10.5,8,10.5Q9.03553,10.5,9.76777,9.76777Q10.5,9.03553,10.5,8Q10.5,6.964468,9.76777,6.232234Q9.03553,5.5,8,5.5Q6.964468,5.5,6.232234,6.232234ZM6.939341,9.06066Q6.5,8.62132,6.5,8Q6.5,7.37868,6.939341,6.939341Q7.37868,6.5,8,6.5Q8.62132,6.5,9.06066,6.939341Q9.5,7.37868,9.5,8Q9.5,8.62132,9.06066,9.06066Q8.62132,9.5,8,9.5Q7.37868,9.5,6.939341,9.06066Z" fill-rule="evenodd" fill="#86909C" fill-opacity="1"/></g></g></svg>