<?xml version="1.0" standalone="no"?><!DOCTYPE svg PUBLIC "-//W3C//DTD SVG 1.1//EN" "http://www.w3.org/Graphics/SVG/1.1/DTD/svg11.dtd"><svg t="1697595257694" class="icon" viewBox="0 0 1024 1024" version="1.1" xmlns="http://www.w3.org/2000/svg" p-id="26273" xmlns:xlink="http://www.w3.org/1999/xlink" width="200" height="200"><path d="M938.666667 85.333333a42.666667 42.666667 0 0 1 42.666666 42.666667V768a42.666667 42.666667 0 0 1-42.666666 42.666667H500.622222l-204.231111 102.172444a42.666667 42.666667 0 0 1-61.326222-32.369778l-0.398222-5.802666V810.666667H85.333333a42.666667 42.666667 0 0 1-42.268444-36.864L42.666667 768V128a42.666667 42.666667 0 0 1 42.666666-42.666667h853.333334zM896 170.666667H128v554.666666h149.333333a42.666667 42.666667 0 0 1 42.268445 36.864l0.398222 5.802667v37.603556l151.608889-75.776a42.666667 42.666667 0 0 1 12.515555-3.982223l6.542223-0.512h405.333333V170.666667z m-170.666667 234.666666a42.666667 42.666667 0 1 1 0 85.333334h-426.666666a42.666667 42.666667 0 0 1 0-85.333334h426.666666z" p-id="26274"></path></svg>