<?xml version="1.0" standalone="no"?><!DOCTYPE svg PUBLIC "-//W3C//DTD SVG 1.1//EN" "http://www.w3.org/Graphics/SVG/1.1/DTD/svg11.dtd"><svg t="1697595095979" class="icon" viewBox="0 0 1024 1024" version="1.1" xmlns="http://www.w3.org/2000/svg" p-id="20760" xmlns:xlink="http://www.w3.org/1999/xlink" width="200" height="200"><path d="M832 42.666667a42.666667 42.666667 0 0 1 42.666667 42.666666v46.876445a460.970667 460.970667 0 0 1-158.492445 347.818666l-12.174222 10.183112V938.666667a42.666667 42.666667 0 0 1-36.864 42.268444l-5.802667 0.398222h-298.666666a42.666667 42.666667 0 0 1-42.666667-42.666666V490.211556l-12.231111-10.24a460.970667 460.970667 0 0 1-158.151111-331.093334l-0.284445-16.668444V85.333333a42.666667 42.666667 0 0 1 42.666667-42.666666h640z m-196.266667 392.533333a383.886222 383.886222 0 0 0 123.335111-157.809778H264.931556A383.886222 383.886222 0 0 0 388.266667 435.2a42.666667 42.666667 0 0 1 17.009777 36.807111 10.808889 10.808889 0 0 1 0.056889 1.536v422.456889h213.333334V473.543111l0.113777-1.137778v-6.144a42.552889 42.552889 0 0 1 16.952889-31.061333zM512 554.837333a42.666667 42.666667 0 0 1 42.666667 42.666667v85.333333a42.666667 42.666667 0 1 1-85.333334 0v-85.333333a42.666667 42.666667 0 0 1 42.666667-42.666667z m277.333333-426.837333h-554.666666c0 21.617778 1.820444 43.008 5.347555 64h543.971556a384 384 0 0 0 5.347555-64z" p-id="20761"></path></svg>