<?xml version="1.0" standalone="no"?><!DOCTYPE svg PUBLIC "-//W3C//DTD SVG 1.1//EN" "http://www.w3.org/Graphics/SVG/1.1/DTD/svg11.dtd"><svg t="1697594932281" class="icon" viewBox="0 0 1024 1024" version="1.1" xmlns="http://www.w3.org/2000/svg" p-id="15098" xmlns:xlink="http://www.w3.org/1999/xlink" width="200" height="200"><path d="M739.555556 42.666667a156.444444 156.444444 0 0 1 156.444444 156.444444v583.111111c0 25.6-6.144 49.834667-17.066667 71.111111h59.733334a42.666667 42.666667 0 1 1 0 85.333334h-853.333334a42.666667 42.666667 0 1 1 0-85.333334h59.733334c-10.922667-21.276444-17.066667-45.511111-17.066667-71.111111v-199.111111A156.444444 156.444444 0 0 1 284.444444 426.666667h28.444445c25.6 0 49.834667 6.144 71.111111 17.066666V199.111111A156.444444 156.444444 0 0 1 540.444444 42.666667H739.555556zM312.888889 512H284.444444c-39.253333 0-71.111111 31.857778-71.111111 71.111111v199.111111c0 39.253333 31.857778 71.111111 71.111111 71.111111h28.444445c39.253333 0 71.111111-31.857778 71.111111-71.111111v-199.111111C384 543.857778 352.142222 512 312.888889 512zM739.555556 128H540.444444c-39.253333 0-71.111111 31.857778-71.111111 71.111111v583.111111c0 39.253333 31.857778 71.111111 71.111111 71.111111H739.555556c39.253333 0 71.111111-31.857778 71.111111-71.111111V199.111111c0-39.253333-31.857778-71.111111-71.111111-71.111111z m-56.888889 512.170667a42.666667 42.666667 0 1 1 0 85.333333h-85.333334a42.666667 42.666667 0 1 1 0-85.333333H682.666667z m-341.333334 0a42.666667 42.666667 0 1 1 0 85.333333H256a42.666667 42.666667 0 1 1 0-85.333333H341.333333z m341.333334-192a42.666667 42.666667 0 1 1 0 85.333333h-85.333334a42.666667 42.666667 0 1 1 0-85.333333H682.666667z m0-192a42.666667 42.666667 0 1 1 0 85.333333h-85.333334a42.666667 42.666667 0 1 1 0-85.333333H682.666667z" p-id="15099"></path></svg>