<?xml version="1.0" standalone="no"?><!DOCTYPE svg PUBLIC "-//W3C//DTD SVG 1.1//EN" "http://www.w3.org/Graphics/SVG/1.1/DTD/svg11.dtd"><svg t="1697595086227" class="icon" viewBox="0 0 1024 1024" version="1.1" xmlns="http://www.w3.org/2000/svg" p-id="20313" xmlns:xlink="http://www.w3.org/1999/xlink" width="200" height="200"><path d="M739.555556 42.666667a156.444444 156.444444 0 0 1 156.444444 156.444444v625.777778A156.444444 156.444444 0 0 1 739.555556 981.333333H284.444444a156.444444 156.444444 0 0 1-156.444444-156.444444v-625.777778A156.444444 156.444444 0 0 1 284.444444 42.666667h455.111112z m-440.888889 85.333333H284.444444c-39.253333 0-71.111111 31.857778-71.111111 71.111111v625.777778c0 39.253333 31.857778 71.111111 71.111111 71.111111h455.111112c39.253333 0 71.111111-31.857778 71.111111-71.111111v-625.777778c0-39.253333-31.857778-71.111111-71.111111-71.111111h-163.555556V426.666667a42.666667 42.666667 0 0 1-70.997333 31.857777l-67.697778-60.131555-67.640889 60.188444a42.666667 42.666667 0 0 1-70.599111-25.941333L298.666667 426.666667V128zM682.666667 682.666667a42.666667 42.666667 0 1 1 0 85.333333H341.333333A42.666667 42.666667 0 1 1 341.333333 682.666667h341.333334zM554.666667 554.666667a42.666667 42.666667 0 1 1 0 85.333333H341.333333a42.666667 42.666667 0 1 1 0-85.333333h213.333334z m-64-426.666667H384v203.605333l25.031111-22.186666a42.666667 42.666667 0 0 1 51.541333-3.868445l5.12 3.868445 24.974223 22.243555V128z" p-id="20314"></path></svg>