<?xml version="1.0" standalone="no"?><!DOCTYPE svg PUBLIC "-//W3C//DTD SVG 1.1//EN" "http://www.w3.org/Graphics/SVG/1.1/DTD/svg11.dtd"><svg t="1697595064952" class="icon" viewBox="0 0 1024 1024" version="1.1" xmlns="http://www.w3.org/2000/svg" p-id="19121" xmlns:xlink="http://www.w3.org/1999/xlink" width="200" height="200"><path d="M853.333333 128A156.444444 156.444444 0 0 1 1009.777778 284.444444v455.111112A156.444444 156.444444 0 0 1 853.333333 896H227.555556A156.444444 156.444444 0 0 1 71.111111 739.555556V284.444444A156.444444 156.444444 0 0 1 227.555556 128h625.777777z m71.111111 199.111111H156.444444V739.555556c0 39.253333 31.857778 71.111111 71.111112 71.111111h625.777777c39.253333 0 71.111111-31.857778 71.111111-71.111111V327.111111zM341.333333 611.555556a42.666667 42.666667 0 1 1 0 85.333333H256a42.666667 42.666667 0 1 1 0-85.333333H341.333333z m213.333334 0a42.666667 42.666667 0 1 1 0 85.333333h-85.333334a42.666667 42.666667 0 1 1 0-85.333333h85.333334z m213.333333 0a42.666667 42.666667 0 1 1 0 85.333333H682.666667a42.666667 42.666667 0 1 1 0-85.333333h85.333333zM341.333333 462.222222a42.666667 42.666667 0 0 1 0 85.333334H256a42.666667 42.666667 0 0 1 0-85.333334H341.333333z m213.333334 0a42.666667 42.666667 0 1 1 0 85.333334h-85.333334a42.666667 42.666667 0 0 1 0-85.333334h85.333334z m213.333333 0a42.666667 42.666667 0 1 1 0 85.333334H682.666667a42.666667 42.666667 0 1 1 0-85.333334h85.333333zM853.333333 213.333333H227.555556c-23.267556 0-43.918222 11.150222-56.888889 28.444445h739.555555a70.997333 70.997333 0 0 0-56.888889-28.444445z" p-id="19122"></path></svg>