<?xml version="1.0" standalone="no"?><!DOCTYPE svg PUBLIC "-//W3C//DTD SVG 1.1//EN" "http://www.w3.org/Graphics/SVG/1.1/DTD/svg11.dtd"><svg t="1697595302124" class="icon" viewBox="0 0 1024 1024" version="1.1" xmlns="http://www.w3.org/2000/svg" p-id="28770" xmlns:xlink="http://www.w3.org/1999/xlink" width="200" height="200"><path d="M405.333333 106.666667c194.787556 0 353.848889 51.256889 362.325334 141.653333l0.341333 7.68v152.860444a256.056889 256.056889 0 1 1-152.348444 483.84l16.952888-4.835555c-62.691556 18.944-142.734222 29.468444-227.271111 29.468444-200.192 0-362.666667-54.158222-362.666666-149.333333v-512l0.113777-2.332444 0.227556-5.290667c8.476444-90.453333 167.537778-141.710222 362.325333-141.710222zM128 698.766222V768c0 22.641778 124.017778 64 277.333333 64 38.286222 0 75.377778-2.332444 109.681778-6.769778l12.231111-1.763555-2.446222-3.015111a256.682667 256.682667 0 0 1-12.629333-17.351112l7.736889 11.036445a256.568889 256.568889 0 0 1-36.977778-70.257778c-25.258667 1.763556-51.2 2.787556-77.596445 2.787556-111.217778 0-210.830222-16.725333-277.333333-47.900445z m597.333333-208.099555a170.097778 170.097778 0 0 0-127.032889 56.661333 169.870222 169.870222 0 0 0-41.187555 143.018667 170.894222 170.894222 0 0 0 168.220444 141.653333 170.666667 170.666667 0 0 0 0-341.333333z m126.179556 97.848889a42.666667 42.666667 0 0 1 0 60.302222l-117.361778 117.361778a42.666667 42.666667 0 0 1-60.302222 0l-64-64a42.666667 42.666667 0 0 1 60.302222-60.302223l33.848889 33.792 87.153778-87.153777a42.666667 42.666667 0 0 1 60.302222 0zM128 528.099556V597.333333c0 22.641778 124.017778 64 277.333333 64 21.788444 0 43.235556-0.739556 64.170667-2.275555l-0.170667 2.275555c0-30.72 5.461333-60.643556 15.758223-88.632889a940.373333 940.373333 0 0 1-79.758223 3.299556c-111.217778 0-210.830222-16.725333-277.333333-47.900444z m277.333333-122.766223c-111.217778 0-210.830222-16.725333-277.333333-47.900444V426.666667c0 22.641778 124.017778 64 277.333333 64 49.664 0 97.507556-3.982222 140.117334-11.377778l3.015111-3.015111c1.706667-1.706667 3.584-3.413333 5.404444-5.006222l1.820445-1.649778a257.024 257.024 0 0 1 88.120889-51.029334c8.931556-3.015111 18.147556-5.518222 27.477333-7.509333l11.377778-2.218667 0.056889-51.484444c-66.56 31.232-166.115556 47.957333-277.390223 47.957333z m0-213.333333c-153.258667 0-277.333333 41.358222-277.333333 64s124.017778 64 277.333333 64C558.592 320 682.666667 278.641778 682.666667 256S558.648889 192 405.333333 192z" p-id="28771"></path></svg>