<?xml version="1.0" standalone="no"?><!DOCTYPE svg PUBLIC "-//W3C//DTD SVG 1.1//EN" "http://www.w3.org/Graphics/SVG/1.1/DTD/svg11.dtd"><svg t="1697766358629" class="icon" viewBox="0 0 1024 1024" version="1.1" xmlns="http://www.w3.org/2000/svg" p-id="5312" xmlns:xlink="http://www.w3.org/1999/xlink" width="200" height="200"><path d="M341.333333 640a42.666667 42.666667 0 1 1 0 85.333333H278.812444l-113.777777 170.666667h693.873777l-113.777777-170.666667H682.666667a42.666667 42.666667 0 0 1-42.268445-36.864L640 682.666667a42.666667 42.666667 0 0 1 42.666667-42.666667h85.333333a42.666667 42.666667 0 0 1 35.498667 19.000889l170.666666 256a42.666667 42.666667 0 0 1-35.498666 66.332444h-853.333334a42.666667 42.666667 0 0 1-35.498666-66.332444l170.666666-256a42.666667 42.666667 0 0 1 35.498667-19.000889H341.333333zM512 42.666667a213.333333 213.333333 0 0 1 42.666667 422.4v345.6a42.666667 42.666667 0 1 1-85.333334 0V465.066667A213.390222 213.390222 0 0 1 512 42.666667z m0 85.333333a128 128 0 1 0 0 256 128 128 0 0 0 0-256z" p-id="5313"></path></svg>