<?xml version="1.0" standalone="no"?><!DOCTYPE svg PUBLIC "-//W3C//DTD SVG 1.1//EN" "http://www.w3.org/Graphics/SVG/1.1/DTD/svg11.dtd"><svg t="1697594957714" class="icon" viewBox="0 0 1024 1024" version="1.1" xmlns="http://www.w3.org/2000/svg" p-id="15545" xmlns:xlink="http://www.w3.org/1999/xlink" width="200" height="200"><path d="M896 213.333333a85.333333 85.333333 0 0 1 85.333333 85.333334V853.333333a85.333333 85.333333 0 0 1-85.333333 85.333334H128A85.333333 85.333333 0 0 1 42.666667 853.333333V298.666667a85.333333 85.333333 0 0 1 85.333333-85.333334h768z m0 85.333334H128V853.333333h768V298.666667z m-251.960889 72.362666l4.778667 4.152889a42.666667 42.666667 0 0 1 0 60.302222l-55.182222 55.182223h46.364444a42.666667 42.666667 0 1 1 0 85.333333h-85.333333v42.666667h85.333333a42.666667 42.666667 0 1 1 0 85.333333h-85.333333v42.666667a42.666667 42.666667 0 1 1-85.333334 0v-42.666667h-85.333333a42.666667 42.666667 0 1 1 0-85.333333h85.333333v-42.666667h-85.333333a42.666667 42.666667 0 0 1 0-85.333333h46.307556l-55.182223-55.182223a42.666667 42.666667 0 0 1 60.359111-60.302222L512 451.640889l76.515556-76.458667a42.666667 42.666667 0 0 1 55.523555-4.152889zM853.333333 85.333333A42.666667 42.666667 0 1 1 853.333333 170.666667H170.666667a42.666667 42.666667 0 0 1 0-85.333334h682.666666z" p-id="15546"></path></svg>