<?xml version="1.0" standalone="no"?><!DOCTYPE svg PUBLIC "-//W3C//DTD SVG 1.1//EN" "http://www.w3.org/Graphics/SVG/1.1/DTD/svg11.dtd"><svg t="1697594964986" class="icon" viewBox="0 0 1024 1024" version="1.1" xmlns="http://www.w3.org/2000/svg" p-id="15843" xmlns:xlink="http://www.w3.org/1999/xlink" width="200" height="200"><path d="M85.333333 981.333333a42.666667 42.666667 0 0 1-42.666666-42.666666V448a42.666667 42.666667 0 0 1 19.399111-35.783111l426.666666-277.333333a42.666667 42.666667 0 0 1 46.535112 0l426.666666 277.333333a42.666667 42.666667 0 0 1 19.399111 35.783111V938.666667a42.666667 42.666667 0 0 1-42.666666 42.666666h-853.333334zM512 221.525333L128 471.096889v424.903111h85.333333V597.333333a42.666667 42.666667 0 0 1 20.081778-36.181333l170.666667-106.666667a42.666667 42.666667 0 0 1 65.251555 36.181334v405.333333h85.333334V490.666667a42.666667 42.666667 0 0 1 65.251555-36.181334l170.666667 106.666667a42.666667 42.666667 0 0 1 20.081778 36.181333v298.666667h85.333333V471.096889L512 221.525333zM384 567.580444l-85.333333 53.304889v275.114667h85.333333V567.580444z m256 0v328.419556h85.333333v-275.057778l-85.333333-53.361778z" p-id="15844"></path></svg>