<?xml version="1.0" standalone="no"?><!DOCTYPE svg PUBLIC "-//W3C//DTD SVG 1.1//EN" "http://www.w3.org/Graphics/SVG/1.1/DTD/svg11.dtd"><svg t="1697594961585" class="icon" viewBox="0 0 1024 1024" version="1.1" xmlns="http://www.w3.org/2000/svg" p-id="15694" xmlns:xlink="http://www.w3.org/1999/xlink" width="200" height="200"><path d="M213.333333 981.333333a85.333333 85.333333 0 0 1-85.333333-85.333333V128a85.333333 85.333333 0 0 1 85.333333-85.333333h597.333334a85.333333 85.333333 0 0 1 85.333333 85.333333v768a85.333333 85.333333 0 0 1-85.333333 85.333333H213.333333z m85.333334-853.333333h-85.333334v768h85.333334V128z m512 0h-426.666667v768h426.666667V128zM682.666667 384a42.666667 42.666667 0 1 1 0 85.333333H512a42.666667 42.666667 0 0 1 0-85.333333h170.666667z m0-170.666667a42.666667 42.666667 0 1 1 0 85.333334H512a42.666667 42.666667 0 0 1 0-85.333334h170.666667z" p-id="15695"></path></svg>