<?xml version="1.0" standalone="no"?><!DOCTYPE svg PUBLIC "-//W3C//DTD SVG 1.1//EN" "http://www.w3.org/Graphics/SVG/1.1/DTD/svg11.dtd"><svg t="1697594923026" class="icon" viewBox="0 0 1024 1024" version="1.1" xmlns="http://www.w3.org/2000/svg" p-id="14651" xmlns:xlink="http://www.w3.org/1999/xlink" width="200" height="200"><path d="M312.888889 85.333333a156.444444 156.444444 0 0 1 156.444444 156.444445V312.888889A156.444444 156.444444 0 0 1 312.888889 469.333333H241.777778A156.444444 156.444444 0 0 1 85.333333 312.888889V241.777778A156.444444 156.444444 0 0 1 241.777778 85.333333H312.888889z m0 85.333334H241.777778C202.524444 170.666667 170.666667 202.524444 170.666667 241.777778V312.888889c0 39.253333 31.857778 71.111111 71.111111 71.111111H312.888889c39.253333 0 71.111111-31.857778 71.111111-71.111111V241.777778C384 202.524444 352.142222 170.666667 312.888889 170.666667z m0 384a156.444444 156.444444 0 0 1 156.444444 156.444444v71.111111A156.444444 156.444444 0 0 1 312.888889 938.666667H241.777778a156.444444 156.444444 0 0 1-156.444445-156.444445V711.111111a156.444444 156.444444 0 0 1 156.444445-156.444444H312.888889z m0 85.333333H241.777778c-39.253333 0-71.111111 31.857778-71.111111 71.111111v71.111111c0 39.253333 31.857778 71.111111 71.111111 71.111111H312.888889c39.253333 0 71.111111-31.857778 71.111111-71.111111V711.111111c0-39.253333-31.857778-71.111111-71.111111-71.111111z m433.777778-554.666667a192 192 0 1 1 0 384 192 192 0 0 1 0-384z m0 85.333334a106.666667 106.666667 0 1 0 0 213.333333 106.666667 106.666667 0 0 0 0-213.333333z m35.555555 384a156.444444 156.444444 0 0 1 156.444445 156.444444v71.111111a156.444444 156.444444 0 0 1-156.444445 156.444445H711.111111a156.444444 156.444444 0 0 1-156.444444-156.444445V711.111111a156.444444 156.444444 0 0 1 156.444444-156.444444h71.111111z m0 85.333333H711.111111c-39.253333 0-71.111111 31.857778-71.111111 71.111111v71.111111c0 39.253333 31.857778 71.111111 71.111111 71.111111h71.111111c39.253333 0 71.111111-31.857778 71.111111-71.111111V711.111111c0-39.253333-31.857778-71.111111-71.111111-71.111111z" p-id="14652"></path></svg>