<?xml version="1.0" standalone="no"?><!DOCTYPE svg PUBLIC "-//W3C//DTD SVG 1.1//EN" "http://www.w3.org/Graphics/SVG/1.1/DTD/svg11.dtd"><svg t="1697594974102" class="icon" viewBox="0 0 1024 1024" version="1.1" xmlns="http://www.w3.org/2000/svg" p-id="16141" xmlns:xlink="http://www.w3.org/1999/xlink" width="200" height="200"><path d="M661.333333 85.333333a42.666667 42.666667 0 0 1 42.666667 42.666667v192a42.666667 42.666667 0 0 1-42.666667 42.666667H554.666667V469.333333h192a42.666667 42.666667 0 0 1 42.666666 42.666667v149.333333h106.666667a42.666667 42.666667 0 0 1 42.666667 42.666667v192a42.666667 42.666667 0 0 1-42.666667 42.666667H597.333333a42.666667 42.666667 0 0 1-42.666666-42.666667v-192a42.666667 42.666667 0 0 1 42.666666-42.666667h106.666667V554.666667h-384v106.666666H426.666667a42.666667 42.666667 0 0 1 42.666666 42.666667v192a42.666667 42.666667 0 0 1-42.666666 42.666667H128a42.666667 42.666667 0 0 1-42.666667-42.666667v-192a42.666667 42.666667 0 0 1 42.666667-42.666667h106.666667V512a42.666667 42.666667 0 0 1 42.666666-42.666667H469.333333V362.666667H362.666667a42.666667 42.666667 0 0 1-42.666667-42.666667V128a42.666667 42.666667 0 0 1 42.666667-42.666667h298.666666zM384 746.666667H170.666667V853.333333h213.333333v-106.666666z m469.333333 0h-213.333333V853.333333H853.333333v-106.666666zM618.666667 170.666667h-213.333334v106.666666h213.333334V170.666667z" p-id="16142"></path></svg>