<?xml version="1.0" standalone="no"?><!DOCTYPE svg PUBLIC "-//W3C//DTD SVG 1.1//EN" "http://www.w3.org/Graphics/SVG/1.1/DTD/svg11.dtd"><svg t="1697595078060" class="icon" viewBox="0 0 1024 1024" version="1.1" xmlns="http://www.w3.org/2000/svg" p-id="19866" xmlns:xlink="http://www.w3.org/1999/xlink" width="200" height="200"><path d="M222.151111 968.817778a42.666667 42.666667 0 0 1-60.302222 0L55.182222 862.151111a42.666667 42.666667 0 0 1 0-60.302222L405.048889 451.811556l-5.518222-15.018667a297.756444 297.756444 0 0 1-15.132445-79.075556L384 341.333333a298.666667 298.666667 0 0 1 438.328889-264.078222 42.666667 42.666667 0 0 1 10.24 67.868445L700.302222 277.333333l46.307556 46.307556 132.209778-132.152889a42.666667 42.666667 0 0 1 64.682666 5.063111l3.185778 5.12a298.666667 298.666667 0 0 1-374.556444 417.223111L222.094222 968.817778zM682.666667 128a213.333333 213.333333 0 0 0-188.643556 313.059556 42.666667 42.666667 0 0 1-7.566222 50.119111l-340.764445 340.821333 46.307556 46.307556 340.764444-340.764445a42.666667 42.666667 0 0 1 44.544-10.069333l5.688889 2.503111a213.333333 213.333333 0 0 0 309.475556-227.669333l-0.739556-3.072-114.915555 114.915555a42.666667 42.666667 0 0 1-55.523556 4.152889l-4.778666-4.152889-106.666667-106.666667a42.666667 42.666667 0 0 1 0-60.302222l114.915555-114.972444-3.072-0.682667a213.902222 213.902222 0 0 0-25.884444-3.128889L682.666667 128z" p-id="19867"></path></svg>