<?xml version="1.0" standalone="no"?><!DOCTYPE svg PUBLIC "-//W3C//DTD SVG 1.1//EN" "http://www.w3.org/Graphics/SVG/1.1/DTD/svg11.dtd"><svg t="1697595232970" class="icon" viewBox="0 0 1024 1024" version="1.1" xmlns="http://www.w3.org/2000/svg" p-id="25826" xmlns:xlink="http://www.w3.org/1999/xlink" width="200" height="200"><path d="M256 106.666667a170.666667 170.666667 0 1 1 0 341.333333 170.666667 170.666667 0 0 1 0-341.333333z m0 85.333333a85.333333 85.333333 0 1 0 0 170.666667 85.333333 85.333333 0 0 0 0-170.666667z m106.666667 426.666667a42.666667 42.666667 0 0 1 42.666666 42.666666v213.333334a42.666667 42.666667 0 0 1-42.666666 42.666666h-213.333334a42.666667 42.666667 0 0 1-42.666666-42.666666v-213.333334a42.666667 42.666667 0 0 1 42.666666-42.666666h213.333334z m-42.666667 85.333333h-128v128h128v-128z m576-469.333333a42.666667 42.666667 0 0 1 42.666667 42.666666V768a42.666667 42.666667 0 0 1-42.666667 42.666667H533.333333a42.666667 42.666667 0 1 1 0-85.333334H853.333333V320H547.84a42.666667 42.666667 0 0 1-42.268444-36.864l-0.398223-5.802667a42.666667 42.666667 0 0 1 42.666667-42.666666h348.16z" p-id="25827"></path></svg>