<?xml version="1.0" standalone="no"?><!DOCTYPE svg PUBLIC "-//W3C//DTD SVG 1.1//EN" "http://www.w3.org/Graphics/SVG/1.1/DTD/svg11.dtd"><svg t="1698203581028" class="icon" viewBox="0 0 1024 1024" version="1.1" xmlns="http://www.w3.org/2000/svg" p-id="4806" xmlns:xlink="http://www.w3.org/1999/xlink" width="200" height="200"><path d="M542.151111 652.515556l213.333333 213.333333a42.666667 42.666667 0 0 1-30.151111 72.817778h-426.666666a42.666667 42.666667 0 0 1-30.151111-72.817778l213.333333-213.333333a42.666667 42.666667 0 0 1 60.302222 0zM512 742.968889L401.635556 853.333333h220.672L512 743.025778z m384-657.408a85.333333 85.333333 0 0 1 85.333333 85.333333V746.951111a42.666667 42.666667 0 0 1-42.666666 42.666667h-170.666667a42.666667 42.666667 0 0 1 0-85.333334l128-0.056888V170.951111H128v533.276445l128 0.056888a42.666667 42.666667 0 1 1 0 85.333334h-170.666667a42.666667 42.666667 0 0 1-42.666666-42.666667V170.951111a85.333333 85.333333 0 0 1 85.333333-85.333333h768z" p-id="4807"></path></svg>