<?xml version="1.0" standalone="no"?><!DOCTYPE svg PUBLIC "-//W3C//DTD SVG 1.1//EN" "http://www.w3.org/Graphics/SVG/1.1/DTD/svg11.dtd"><svg t="1697595300282" class="icon" viewBox="0 0 1024 1024" version="1.1" xmlns="http://www.w3.org/2000/svg" p-id="28621" xmlns:xlink="http://www.w3.org/1999/xlink" width="200" height="200"><path d="M725.333333 128a85.333333 85.333333 0 0 1 85.333334 85.333333v106.666667l102.4-76.8a42.666667 42.666667 0 0 1 67.868444 28.103111l0.398222 6.030222V768a42.666667 42.666667 0 0 1-68.266666 34.133333l-102.4-76.8v85.333334a85.333333 85.333333 0 0 1-77.141334 84.935111l-8.192 0.398222H128a85.333333 85.333333 0 0 1-85.333333-85.333333V213.333333a85.333333 85.333333 0 0 1 85.333333-85.333333h597.333333z m0 85.333333H128v597.333334h597.333333v-170.666667a42.666667 42.666667 0 0 1 68.266667-34.133333l102.4 76.8V362.666667l-102.4 76.8a42.666667 42.666667 0 0 1-67.868444-28.103111l-0.398223-6.030223V213.333333z m-362.666666 85.333334a149.333333 149.333333 0 1 1 0 298.666666 149.333333 149.333333 0 0 1 0-298.666666z m0 85.333333a64 64 0 1 0 0 128 64 64 0 0 0 0-128z" p-id="28622"></path></svg>