<?xml version="1.0" standalone="no"?><!DOCTYPE svg PUBLIC "-//W3C//DTD SVG 1.1//EN" "http://www.w3.org/Graphics/SVG/1.1/DTD/svg11.dtd"><svg t="1697595177298" class="icon" viewBox="0 0 1024 1024" version="1.1" xmlns="http://www.w3.org/2000/svg" p-id="23740" xmlns:xlink="http://www.w3.org/1999/xlink" width="200" height="200"><path d="M682.666667 42.666667a42.666667 42.666667 0 0 1 42.666666 42.666666v21.333334h149.333334a85.333333 85.333333 0 0 1 85.333333 85.333333V853.333333a85.333333 85.333333 0 0 1-85.333333 85.333334H149.333333a85.333333 85.333333 0 0 1-85.333333-85.333334V192a85.333333 85.333333 0 0 1 85.333333-85.333333H298.666667V85.333333a42.666667 42.666667 0 0 1 85.333333 0v21.333334h256V85.333333A42.666667 42.666667 0 0 1 682.666667 42.666667z m192 405.333333H149.333333V853.333333h725.333334V448zM725.333333 682.666667a42.666667 42.666667 0 1 1 0 85.333333H597.333333a42.666667 42.666667 0 1 1 0-85.333333h128zM426.666667 682.666667a42.666667 42.666667 0 1 1 0 85.333333H298.666667a42.666667 42.666667 0 1 1 0-85.333333H426.666667z m298.666666-170.666667a42.666667 42.666667 0 1 1 0 85.333333H597.333333a42.666667 42.666667 0 1 1 0-85.333333h128zM426.666667 512a42.666667 42.666667 0 0 1 0 85.333333H298.666667a42.666667 42.666667 0 1 1 0-85.333333H426.666667zM298.666667 192H149.333333v170.666667h725.333334v-170.666667H725.333333V256a42.666667 42.666667 0 1 1-85.333333 0V192h-256V256a42.666667 42.666667 0 0 1-85.333333 0V192z" p-id="23741"></path></svg>