<?xml version="1.0" standalone="no"?><!DOCTYPE svg PUBLIC "-//W3C//DTD SVG 1.1//EN" "http://www.w3.org/Graphics/SVG/1.1/DTD/svg11.dtd"><svg t="1697594916783" class="icon" viewBox="0 0 1024 1024" version="1.1" xmlns="http://www.w3.org/2000/svg" p-id="14353" xmlns:xlink="http://www.w3.org/1999/xlink" width="200" height="200"><path d="M291.555556 38.4c12.401778 0 22.755556 4.152889 31.004444 12.401778a42.097778 42.097778 0 0 1 12.401778 30.947555v18.887111h344.177778c72.988444 0 135.452444 25.827556 187.335111 77.425778 52.167111 51.882667 78.222222 114.574222 78.222222 188.188445v310.385777h18.830222c12.970667 0 23.722667 4.835556 32.199111 14.506667a44.942222 44.942222 0 0 1 11.207111 30.606222v145.806223a42.097778 42.097778 0 0 1-12.401777 31.004444 42.097778 42.097778 0 0 1-30.947556 12.344889H540.444444a42.097778 42.097778 0 0 1-31.004444-12.344889 42.097778 42.097778 0 0 1-12.344889-31.004444v-145.806223a42.097778 42.097778 0 0 1 43.349333-43.349333h18.830223V486.058667H334.961778v18.830222a42.097778 42.097778 0 0 1-12.401778 31.004444 42.097778 42.097778 0 0 1-31.004444 12.344889H145.749333a42.097778 42.097778 0 0 1-30.947555-12.344889 42.097778 42.097778 0 0 1-12.401778-31.004444V81.749333c0-12.401778 4.152889-22.755556 12.401778-30.947555a42.097778 42.097778 0 0 1 31.004444-12.401778h145.749334z m628.622222 726.755556h-336.327111v59.050666h336.327111V765.155556zM679.139556 187.392h-344.177778v211.911111h267.719111a42.097778 42.097778 0 0 1 43.406222 43.349333v233.984h211.854222V366.250667c0-49.208889-17.351111-91.249778-52.110222-126.179556a172.088889 172.088889 0 0 0-126.691555-52.679111zM248.149333 125.155556H189.155556v336.384h58.993777V125.155556z" p-id="14354"></path></svg>