<?xml version="1.0" standalone="no"?><!DOCTYPE svg PUBLIC "-//W3C//DTD SVG 1.1//EN" "http://www.w3.org/Graphics/SVG/1.1/DTD/svg11.dtd"><svg t="1697595068371" class="icon" viewBox="0 0 1024 1024" version="1.1" xmlns="http://www.w3.org/2000/svg" p-id="19270" xmlns:xlink="http://www.w3.org/1999/xlink" width="200" height="200"><path d="M938.666667 448a42.666667 42.666667 0 0 1 42.666666 42.666667 298.666667 298.666667 0 0 1-298.666666 298.666666H188.359111l55.182222 55.182223a42.666667 42.666667 0 0 1 4.096 55.523555l-4.152889 4.778667a42.666667 42.666667 0 0 1-60.302222 0l-128-128-3.640889-4.096 3.640889 4.096a42.837333 42.837333 0 0 1-12.515555-30.151111v-0.910223c0-1.137778 0.113778-2.332444 0.227555-3.470222l-0.227555 4.380445a42.894222 42.894222 0 0 1 12.515555-30.151111l128-128a42.666667 42.666667 0 0 1 60.302222 60.302222l-55.125333 55.182222H682.666667a213.333333 213.333333 0 0 0 213.333333-213.333333 42.666667 42.666667 0 0 1 42.666667-42.666667z m-97.848889-328.817778l128 128c1.422222 1.365333 2.730667 2.844444 3.925333 4.437334l-3.925333-4.437334a42.894222 42.894222 0 0 1 12.515555 30.151111v1.706667l-0.227555 2.446222 0.227555-4.152889a42.894222 42.894222 0 0 1-8.590222 25.656889l-3.925333 4.551111-128 128a42.666667 42.666667 0 0 1-60.302222-60.359111l55.125333-55.182222H341.333333a213.333333 213.333333 0 0 0-213.333333 213.333333 42.666667 42.666667 0 0 1-85.333333 0A298.666667 298.666667 0 0 1 341.333333 234.666667h494.307556l-55.182222-55.182223a42.666667 42.666667 0 0 1-4.096-55.523555l4.152889-4.778667a42.666667 42.666667 0 0 1 60.302222 0z" p-id="19271"></path></svg>