<?xml version="1.0" standalone="no"?><!DOCTYPE svg PUBLIC "-//W3C//DTD SVG 1.1//EN" "http://www.w3.org/Graphics/SVG/1.1/DTD/svg11.dtd"><svg t="1697595201083" class="icon" viewBox="0 0 1024 1024" version="1.1" xmlns="http://www.w3.org/2000/svg" p-id="25081" xmlns:xlink="http://www.w3.org/1999/xlink" width="200" height="200"><path d="M887.751111 605.297778C974.734222 695.409778 1024 813.397333 1024 938.666667a42.666667 42.666667 0 0 1-42.666667 42.666666H42.666667A42.666667 42.666667 0 0 1 0 938.666667c0-125.326222 49.265778-243.313778 136.248889-333.368889a42.666667 42.666667 0 0 1 65.194667 4.551111A383.374222 383.374222 0 0 0 512 768a383.374222 383.374222 0 0 0 310.613333-158.151111 42.666667 42.666667 0 0 1 65.137778-4.551111z m-29.980444 95.971555l-8.533334 9.159111A468.252444 468.252444 0 0 1 512 853.333333a468.252444 468.252444 0 0 1-337.237333-142.904889l-8.590223-9.102222-1.820444 2.275556a391.338667 391.338667 0 0 0-75.662222 184.206222l-0.967111 8.135111h848.497777l-0.910222-8.135111a391.338667 391.338667 0 0 0-75.662222-184.206222l-1.877333-2.275556zM512 42.666667A320 320 0 1 1 512 682.666667 320 320 0 0 1 512 42.666667z m0 85.333333a234.666667 234.666667 0 1 0 0 469.333333 234.666667 234.666667 0 0 0 0-469.333333z m0 85.333333A149.333333 149.333333 0 1 1 512 512a149.333333 149.333333 0 0 1 0-298.666667z m0 85.333334A64 64 0 1 0 512 426.666667a64 64 0 0 0 0-128z" p-id="25082"></path></svg>