<?xml version="1.0" standalone="no"?><!DOCTYPE svg PUBLIC "-//W3C//DTD SVG 1.1//EN" "http://www.w3.org/Graphics/SVG/1.1/DTD/svg11.dtd"><svg t="1697766354599" class="icon" viewBox="0 0 1024 1024" version="1.1" xmlns="http://www.w3.org/2000/svg" p-id="5163" xmlns:xlink="http://www.w3.org/1999/xlink" width="200" height="200"><path d="M885.361778 170.666667a42.666667 42.666667 0 1 1 0 85.333333h-128a42.666667 42.666667 0 1 1 0-85.333333h128z m-298.666667-85.333334a42.666667 42.666667 0 0 1 42.666667 42.666667v170.666667a42.666667 42.666667 0 1 1-85.333334 0V256h-426.666666a42.666667 42.666667 0 0 1 0-85.333333h426.666666v-42.666667a42.666667 42.666667 0 0 1 42.666667-42.666667z m-298.666667 384a42.666667 42.666667 0 0 1 0 85.333334h-170.666666a42.666667 42.666667 0 0 1 0-85.333334h170.666666z m170.666667-85.333333a42.666667 42.666667 0 0 1 42.666667 42.666667v42.666666h426.666666a42.666667 42.666667 0 1 1 0 85.333334h-426.666666v42.666666a42.666667 42.666667 0 1 1-85.333334 0v-170.666666a42.666667 42.666667 0 0 1 42.666667-42.666667z m426.666667 384a42.666667 42.666667 0 1 1 0 85.333333h-128a42.666667 42.666667 0 1 1 0-85.333333h128z m-298.666667-85.333333a42.666667 42.666667 0 0 1 42.666667 42.666666v170.666667a42.666667 42.666667 0 1 1-85.333334 0V853.333333h-426.666666a42.666667 42.666667 0 1 1 0-85.333333h426.666666v-42.666667a42.666667 42.666667 0 0 1 42.666667-42.666666z" p-id="5164"></path></svg>