<?xml version="1.0" standalone="no"?><!DOCTYPE svg PUBLIC "-//W3C//DTD SVG 1.1//EN" "http://www.w3.org/Graphics/SVG/1.1/DTD/svg11.dtd"><svg t="1697595070900" class="icon" viewBox="0 0 1024 1024" version="1.1" xmlns="http://www.w3.org/2000/svg" p-id="19419" xmlns:xlink="http://www.w3.org/1999/xlink" width="200" height="200"><path d="M810.666667 42.666667a85.333333 85.333333 0 0 1 85.333333 85.333333V938.666667a42.666667 42.666667 0 0 1-62.236444 37.888L512 810.154667l-321.763556 166.4a42.666667 42.666667 0 0 1-61.838222-32.028445L128 938.666667V128a85.333333 85.333333 0 0 1 85.333333-85.333333h597.333334z m0 85.333333H213.333333v740.522667l279.096889-144.213334a42.666667 42.666667 0 0 1 32.824889-2.673777l6.314667 2.673777 279.096889 144.213334V128zM682.666667 341.333333a42.666667 42.666667 0 1 1 0 85.333334H341.333333A42.666667 42.666667 0 0 1 341.333333 341.333333h341.333334z" p-id="19420"></path></svg>