<?xml version="1.0" standalone="no"?><!DOCTYPE svg PUBLIC "-//W3C//DTD SVG 1.1//EN" "http://www.w3.org/Graphics/SVG/1.1/DTD/svg11.dtd"><svg t="1697595073221" class="icon" viewBox="0 0 1024 1024" version="1.1" xmlns="http://www.w3.org/2000/svg" p-id="19568" xmlns:xlink="http://www.w3.org/1999/xlink" width="200" height="200"><path d="M234.666667 85.333333a149.333333 149.333333 0 0 1 42.666666 292.465778v518.200889a42.666667 42.666667 0 1 1-85.333333 0V377.799111a149.390222 149.390222 0 0 1 42.666667-292.465778zM512 85.333333a42.666667 42.666667 0 0 1 42.666667 42.666667v240.867556a149.390222 149.390222 0 0 1 0 286.264888v240.867556a42.666667 42.666667 0 1 1-85.333334 0v-240.867556a149.390222 149.390222 0 0 1 0-286.264888V128A42.666667 42.666667 0 0 1 512 85.333333z m277.333333 0a42.666667 42.666667 0 0 1 42.666667 42.666667v518.200889a149.390222 149.390222 0 1 1-85.333333 0V128a42.666667 42.666667 0 0 1 42.666666-42.666667z m0 640a64 64 0 1 0 0 128 64 64 0 0 0 0-128zM512 448a64 64 0 1 0 0 128 64 64 0 0 0 0-128zM234.666667 170.666667a64 64 0 1 0 0 128 64 64 0 0 0 0-128z" p-id="19569"></path></svg>