<?xml version="1.0" standalone="no"?><!DOCTYPE svg PUBLIC "-//W3C//DTD SVG 1.1//EN" "http://www.w3.org/Graphics/SVG/1.1/DTD/svg11.dtd"><svg t="1697766340167" class="icon" viewBox="0 0 1024 1024" version="1.1" xmlns="http://www.w3.org/2000/svg" p-id="4567" xmlns:xlink="http://www.w3.org/1999/xlink" width="200" height="200"><path d="M661.333333 85.333333C770.218667 85.333333 853.333333 168.391111 853.333333 277.333333v368.867556a149.390222 149.390222 0 1 1-85.333333 0V277.333333C768 215.552 723.057778 170.666667 661.333333 170.666667c-61.781333 0-106.666667 44.942222-106.666666 106.666666v469.333334c0 108.885333-83.057778 192-192 192C253.781333 938.666667 170.666667 855.608889 170.666667 746.666667V230.968889l-33.848889 33.848889a42.666667 42.666667 0 0 1-55.523556 4.152889l-4.778666-4.152889a42.666667 42.666667 0 0 1 0-60.302222L183.182222 97.848889l4.096-3.640889-4.096 3.640889a42.894222 42.894222 0 0 1 30.151111-12.515556h0.967111c1.137778 0 2.275556 0.113778 3.413334 0.227556L213.333333 85.333333a42.894222 42.894222 0 0 1 25.656889 8.590223l4.551111 3.925333 106.609778 106.666667a42.666667 42.666667 0 0 1-60.302222 60.302222L256 231.025778v515.640889C256 808.448 300.942222 853.333333 362.666667 853.333333c61.781333 0 106.666667-44.942222 106.666666-106.666666v-469.333334c0-108.885333 83.057778-192 192-192z m149.333334 640a64 64 0 1 0 0 128 64 64 0 0 0 0-128z" p-id="4568"></path></svg>