<?xml version="1.0" standalone="no"?><!DOCTYPE svg PUBLIC "-//W3C//DTD SVG 1.1//EN" "http://www.w3.org/Graphics/SVG/1.1/DTD/svg11.dtd"><svg t="1697595111972" class="icon" viewBox="0 0 1024 1024" version="1.1" xmlns="http://www.w3.org/2000/svg" p-id="21207" xmlns:xlink="http://www.w3.org/1999/xlink" width="200" height="200"><path d="M796.444444 128a99.555556 99.555556 0 1 1-89.941333 142.222222H324.266667c-55.864889 0-110.933333 38.229333-110.933334 99.555556 0 61.326222 55.068444 99.555556 110.933334 99.555555h375.466666c97.735111 0 196.266667 68.437333 196.266667 184.888889 0 116.451556-98.531556 184.888889-196.266667 184.888889H317.496889a99.555556 99.555556 0 1 1 0-85.333333H699.733333c55.864889 0 110.933333-38.229333 110.933334-99.555556 0-61.326222-55.068444-99.555556-110.933334-99.555555H324.266667c-97.735111 0-196.266667-68.437333-196.266667-184.888889 0-116.451556 98.531556-184.888889 196.266667-184.888889h382.179555c15.985778-33.621333 50.289778-56.888889 89.998222-56.888889zM227.555556 782.222222a14.222222 14.222222 0 1 0 0 28.444445 14.222222 14.222222 0 0 0 0-28.444445z m568.888888-568.888889a14.222222 14.222222 0 1 0 0 28.444445 14.222222 14.222222 0 0 0 0-28.444445z" p-id="21208"></path></svg>