<?xml version="1.0" standalone="no"?><!DOCTYPE svg PUBLIC "-//W3C//DTD SVG 1.1//EN" "http://www.w3.org/Graphics/SVG/1.1/DTD/svg11.dtd"><svg t="1697595282664" class="icon" viewBox="0 0 1024 1024" version="1.1" xmlns="http://www.w3.org/2000/svg" p-id="27578" xmlns:xlink="http://www.w3.org/1999/xlink" width="200" height="200"><path d="M341.333333 960a42.666667 42.666667 0 1 1 0-85.333333h128v-44.999111a384.056889 384.056889 0 1 1 85.333334 0v44.999111H682.666667a42.666667 42.666667 0 1 1 0 85.333333H341.333333z m170.666667-810.666667a298.666667 298.666667 0 1 0 0 597.333334 298.666667 298.666667 0 0 0 0-597.333334zM512 256a192 192 0 1 1 0 384A192 192 0 0 1 512 256zM512 341.333333a106.666667 106.666667 0 1 0 0 213.333334A106.666667 106.666667 0 0 0 512 341.333333z" p-id="27579"></path></svg>