<?xml version="1.0" standalone="no"?><!DOCTYPE svg PUBLIC "-//W3C//DTD SVG 1.1//EN" "http://www.w3.org/Graphics/SVG/1.1/DTD/svg11.dtd"><svg t="1697595008410" class="icon" viewBox="0 0 1024 1024" version="1.1" xmlns="http://www.w3.org/2000/svg" p-id="17333" xmlns:xlink="http://www.w3.org/1999/xlink" width="200" height="200"><path d="M917.333333 469.333333a42.666667 42.666667 0 1 1 0 85.333334H106.666667a42.666667 42.666667 0 0 1 0-85.333334h810.666666z m-341.333333 298.666667a42.666667 42.666667 0 1 1 0 85.333333h-128a42.666667 42.666667 0 1 1 0-85.333333h128z m341.333333 0a42.666667 42.666667 0 1 1 0 85.333333h-128a42.666667 42.666667 0 1 1 0-85.333333h128z m-341.333333-597.333333a42.666667 42.666667 0 1 1 0 85.333333h-128a42.666667 42.666667 0 0 1 0-85.333333h128z m-341.333333 597.333333a42.666667 42.666667 0 1 1 0 85.333333h-128a42.666667 42.666667 0 1 1 0-85.333333h128z m0-597.333333a42.666667 42.666667 0 0 1 0 85.333333h-128a42.666667 42.666667 0 0 1 0-85.333333h128z m682.666666 0a42.666667 42.666667 0 1 1 0 85.333333h-128a42.666667 42.666667 0 1 1 0-85.333333h128z" p-id="17334"></path></svg>