<?xml version="1.0" standalone="no"?><!DOCTYPE svg PUBLIC "-//W3C//DTD SVG 1.1//EN" "http://www.w3.org/Graphics/SVG/1.1/DTD/svg11.dtd"><svg t="1697595011107" class="icon" viewBox="0 0 1024 1024" version="1.1" xmlns="http://www.w3.org/2000/svg" p-id="17482" xmlns:xlink="http://www.w3.org/1999/xlink" width="200" height="200"><path d="M640.170667 40.96l151.153777 236.373333H853.333333a42.666667 42.666667 0 0 1 42.439111 47.047111l-64 618.666667a42.666667 42.666667 0 0 1-42.439111 38.286222h-554.666666a42.666667 42.666667 0 0 1-42.439111-38.286222L128.227556 324.380444A42.666667 42.666667 0 0 1 170.666667 277.333333h71.224889L578.958222 29.582222a42.666667 42.666667 0 0 1 61.212445 11.377778z m165.774222 321.706667H217.998222l55.125334 533.333333h477.696l55.125333-533.333333z m-379.221333 128a42.666667 42.666667 0 0 1 42.666666 42.666666v213.333334a42.666667 42.666667 0 1 1-85.333333 0v-213.333334a42.666667 42.666667 0 0 1 42.666667-42.666666z m170.666666 0a42.666667 42.666667 0 0 1 42.666667 42.666666v213.276445a42.666667 42.666667 0 0 1-85.333333 0v-213.333334a42.666667 42.666667 0 0 1 42.666666-42.666666z m-4.608-365.340445L386.048 277.333333h304.014222l-97.28-152.007111z" p-id="17483"></path></svg>