<?xml version="1.0" standalone="no"?><!DOCTYPE svg PUBLIC "-//W3C//DTD SVG 1.1//EN" "http://www.w3.org/Graphics/SVG/1.1/DTD/svg11.dtd"><svg t="1697595183853" class="icon" viewBox="0 0 1024 1024" version="1.1" xmlns="http://www.w3.org/2000/svg" p-id="24187" xmlns:xlink="http://www.w3.org/1999/xlink" width="200" height="200"><path d="M85.333333 42.666667a42.666667 42.666667 0 0 1 42.666667 42.666666v810.666667H938.666667a42.666667 42.666667 0 0 1 42.268444 36.864l0.398222 5.802667a42.666667 42.666667 0 0 1-42.666666 42.666666h-853.333334a42.666667 42.666667 0 0 1-42.666666-42.666666v-853.333334A42.666667 42.666667 0 0 1 85.333333 42.666667z m490.666667 0c197.404444 0 326.087111 257.422222 404.821333 761.400889a42.666667 42.666667 0 0 1-84.309333 13.198222C824.149333 354.133333 711.054222 128 576 128c-95.288889 0-179.655111 112.583111-246.442667 341.447111L327.111111 469.333333a42.666667 42.666667 0 0 1 0 85.333334h-20.309333a3183.616 3183.616 0 0 0-51.313778 262.599111 42.666667 42.666667 0 0 1-84.309333-13.198222c14.222222-91.249778 30.151111-174.421333 47.786666-249.400889H213.333333a42.666667 42.666667 0 0 1 0-85.333334h27.420445c78.620444-282.908444 187.733333-426.666667 335.246222-426.666666z m206.222222 426.666666a42.666667 42.666667 0 1 1 0 85.333334h-113.777778a42.666667 42.666667 0 1 1 0-85.333334h113.777778z" p-id="24188"></path></svg>