<?xml version="1.0" standalone="no"?><!DOCTYPE svg PUBLIC "-//W3C//DTD SVG 1.1//EN" "http://www.w3.org/Graphics/SVG/1.1/DTD/svg11.dtd"><svg t="1697595206771" class="icon" viewBox="0 0 1024 1024" version="1.1" xmlns="http://www.w3.org/2000/svg" p-id="25379" xmlns:xlink="http://www.w3.org/1999/xlink" width="200" height="200"><path d="M768 85.333333a213.333333 213.333333 0 0 1 213.333333 213.333334v426.666666a213.333333 213.333333 0 0 1-213.333333 213.333334h-512a213.333333 213.333333 0 0 1-213.333333-213.333334v-426.666666A213.333333 213.333333 0 0 1 256 85.333333h512zM896 341.333333H128v384A128 128 0 0 0 256 853.333333h512a128 128 0 0 0 128-128V341.333333z m-128 298.666667a42.666667 42.666667 0 1 1 0 85.333333h-341.333333a42.666667 42.666667 0 1 1 0-85.333333h341.333333z m-469.333333 0a42.666667 42.666667 0 1 1 0 85.333333H256a42.666667 42.666667 0 1 1 0-85.333333h42.666667z m469.333333-170.666667a42.666667 42.666667 0 1 1 0 85.333334h-341.333333a42.666667 42.666667 0 0 1 0-85.333334h341.333333z m-469.333333 0a42.666667 42.666667 0 0 1 0 85.333334H256a42.666667 42.666667 0 0 1 0-85.333334h42.666667zM768 170.666667h-512a128 128 0 0 0-120.718222 85.333333h753.436444A128 128 0 0 0 768 170.666667z" p-id="25380"></path></svg>