<?xml version="1.0" standalone="no"?><!DOCTYPE svg PUBLIC "-//W3C//DTD SVG 1.1//EN" "http://www.w3.org/Graphics/SVG/1.1/DTD/svg11.dtd"><svg t="1697595228011" class="icon" viewBox="0 0 1024 1024" version="1.1" xmlns="http://www.w3.org/2000/svg" p-id="25528" xmlns:xlink="http://www.w3.org/1999/xlink" width="200" height="200"><path d="M534.471111 154.965333a312.149333 312.149333 0 0 1 312.149333 312.149334v314.368a42.666667 42.666667 0 0 1-42.666666 42.666666H264.988444a42.666667 42.666667 0 0 1-42.666666-42.666666V467.057778a312.149333 312.149333 0 0 1 312.149333-312.149334z m0 85.333334A226.816 226.816 0 0 0 307.655111 467.057778v271.701333h453.575111V467.057778a226.816 226.816 0 0 0-215.438222-226.531556l-11.377778-0.284444z m-435.655111 6.656l67.356444 22.471111a42.666667 42.666667 0 1 1-26.965333 80.952889l-67.356444-22.471111a42.666667 42.666667 0 1 1 26.965333-80.952889z m84.081778-124.416l67.356444 67.356444a42.666667 42.666667 0 0 1-60.302222 60.302222L122.481778 182.954667a42.666667 42.666667 0 0 1 60.302222-60.359111z m145.066666-50.688l22.414223 67.356444a42.666667 42.666667 0 1 1-80.952889 26.965333L246.897778 98.816a42.666667 42.666667 0 1 1 80.952889-26.965333zM893.724444 896a42.666667 42.666667 0 0 1 0 85.333333H175.217778a42.666667 42.666667 0 1 1 0-85.333333H893.724444z" p-id="25529"></path></svg>