<?xml version="1.0" standalone="no"?><!DOCTYPE svg PUBLIC "-//W3C//DTD SVG 1.1//EN" "http://www.w3.org/Graphics/SVG/1.1/DTD/svg11.dtd"><svg t="1697766352172" class="icon" viewBox="0 0 1024 1024" version="1.1" xmlns="http://www.w3.org/2000/svg" p-id="5014" xmlns:xlink="http://www.w3.org/1999/xlink" width="200" height="200"><path d="M661.333333 810.666667v21.333333a149.333333 149.333333 0 0 1-298.666666 0v-21.333333H256a42.666667 42.666667 0 1 1-85.333333 0h-28.444445a42.666667 42.666667 0 1 1 0-85.333334H170.666667v-341.333333a341.333333 341.333333 0 1 1 682.666666 0v341.333333h28.444445a42.666667 42.666667 0 1 1 0 85.333334H853.333333a42.666667 42.666667 0 1 1-85.333333 0h-106.666667z m-89.088 42.666666H451.697778l1.991111 5.12c9.102222 20.138667 28.444444 34.702222 51.313778 37.148445L512 896c25.941333 0 48.241778-15.36 58.311111-37.546667l1.934222-5.12zM512 128a256 256 0 0 0-256 256v341.333333h512v-341.333333A256 256 0 0 0 512 128z" p-id="5015"></path></svg>